# Blender v3.1.2 OBJ File: ''
# www.blender.org
mtllib boss_lid.mtl
o 立方体.005_立方体.004
v 0.052672 3.400000 -0.083794
v -0.057715 0.000000 0.082981
v 0.052672 0.000000 -0.083796
v -0.057715 3.400000 0.082983
v -2.059041 0.000000 -1.241668
v -2.059041 3.400002 -1.241666
v -1.948653 0.000000 -1.408445
v -1.948653 3.400002 -1.408444
vt 0.155252 0.155252
vt 0.018808 0.018808
vt 0.155252 0.018808
vt 0.155252 0.503373
vt 0.018808 0.366928
vt 0.155252 0.366928
vt 0.329312 0.155252
vt 0.192868 0.018808
vt 0.329312 0.018808
vt 0.503372 0.155252
vt 0.366928 0.018808
vt 0.503372 0.018808
vt 0.503372 0.192868
vt 0.366928 0.329312
vt 0.366928 0.192868
vt 0.329312 0.366928
vt 0.192868 0.503372
vt 0.192868 0.366928
vt 0.018808 0.155252
vt 0.018808 0.503372
vt 0.192868 0.155252
vt 0.366928 0.155252
vt 0.503372 0.329312
vt 0.329312 0.503372
vn 0.8339 -0.0000 0.5519
vn -0.5519 -0.0000 0.8339
vn -0.8339 0.0000 -0.5519
vn 0.5519 0.0000 -0.8339
vn -0.0000 -1.0000 -0.0000
vn 0.0000 1.0000 0.0000
usemtl マテリアル.008
s 1
f 1/1/1 2/2/1 3/3/1
f 4/4/2 5/5/2 2/6/2
f 6/7/3 7/8/3 5/9/3
f 8/10/4 3/11/4 7/12/4
f 5/13/5 3/14/5 2/15/5
f 4/16/6 8/17/6 6/18/6
f 1/1/1 4/19/1 2/2/1
f 4/4/2 6/20/2 5/5/2
f 6/7/3 8/21/3 7/8/3
f 8/10/4 1/22/4 3/11/4
f 5/13/5 7/23/5 3/14/5
f 4/16/6 1/24/6 8/17/6
