# Blender v3.1.2 OBJ File: 'pencil.blend'
# www.blender.org
mtllib pencil.mtl
o 立方体.008
v -0.460147 1.000000 -0.205974
v -0.358863 -0.553299 -0.367122
v -0.460147 -0.553299 -0.205974
v 0.187152 1.000000 -0.482329
v 0.358863 -0.553299 -0.367122
v 0.187152 -0.553299 -0.482329
v 0.460147 1.000000 0.205974
v 0.358863 -0.553299 0.367122
v 0.460147 -0.553299 0.205974
v -0.187152 1.000000 0.482329
v -0.358863 -0.553299 0.367122
v -0.187152 -0.553299 0.482329
v -0.250000 1.000000 0.250000
v -0.358863 1.000000 0.367122
v -0.250000 1.000000 0.000000
v -0.250000 1.000000 -0.250000
v 0.460147 1.000000 -0.205974
v 0.500000 -0.553299 -0.000000
v 0.460147 -0.553299 -0.205974
v -0.460147 1.000000 0.205974
v -0.500000 -0.553299 -0.000000
v -0.460147 -0.553299 0.205974
v 0.000000 1.000000 -0.250000
v 0.250000 1.000000 0.000000
v 0.250000 1.000000 -0.250000
v 0.000000 1.000000 0.250000
v 0.187152 1.000000 0.482329
v 0.250000 1.000000 0.250000
v 0.000000 -0.553299 0.500000
v 0.187152 -0.553299 0.482329
v -0.187152 1.000000 -0.482329
v 0.000000 -0.553299 -0.500000
v -0.187152 -0.553299 -0.482329
v 0.000000 1.000000 0.000000
v 0.500000 1.000000 0.000000
v 0.358863 1.000000 -0.367122
v -0.358863 1.000000 -0.367122
v -0.500000 1.000000 0.000000
v 0.000000 1.000000 -0.500000
v 0.000000 1.000000 0.500000
v 0.358863 1.000000 0.367122
v 0.000000 -1.000000 -0.000000
vt 0.448329 0.684671
vt 0.396614 0.396737
vt 0.448329 0.396737
vt 0.063352 0.990827
vt 0.009173 0.702894
vt 0.063352 0.702894
vt 0.060887 0.684548
vt 0.009173 0.396614
vt 0.060887 0.396614
vt 0.736599 0.684671
vt 0.682419 0.396737
vt 0.736599 0.396737
vt 0.294708 0.110159
vt 0.341731 0.074060
vt 0.378269 0.141453
vt 0.133733 0.016704
vt 0.202433 0.101447
vt 0.110159 0.092734
vt 0.210945 0.684548
vt 0.133167 0.396614
vt 0.210945 0.396614
vt 0.598387 0.684671
vt 0.520609 0.396737
vt 0.598387 0.396737
vt 0.101447 0.185009
vt 0.185009 0.285995
vt 0.092734 0.277283
vt 0.285995 0.202433
vt 0.365225 0.279607
vt 0.277283 0.294708
vt 0.872739 0.684671
vt 0.803400 0.396737
vt 0.872739 0.396737
vt 0.199492 0.990827
vt 0.130153 0.702894
vt 0.199492 0.702894
vt 0.193721 0.193721
vt 0.664074 0.684671
vt 0.664074 0.396737
vt 0.285781 0.031060
vt 0.133167 0.684548
vt 0.009173 0.245989
vt 0.276632 0.684548
vt 0.276632 0.396614
vt 0.070724 0.048472
vt 0.022217 0.107835
vt 0.520609 0.684671
vt 0.009173 0.176296
vt 0.270220 0.990827
vt 0.270220 0.702894
vt 0.378269 0.211146
vt 0.803400 0.684671
vt 0.045711 0.313382
vt 0.101661 0.356382
vt 0.253709 0.370738
vt 0.176296 0.378269
vt 0.943467 0.684671
vt 0.943467 0.396737
vt 0.316718 0.338970
vt 0.130153 0.990827
vt 0.551574 0.191731
vt 0.751711 0.209905
vt 0.739162 0.278435
vt 0.431767 0.314443
vt 0.396615 0.247329
vt 0.396615 0.177659
vt 0.409164 0.109129
vt 0.716559 0.073121
vt 0.751711 0.140235
vt 0.590927 0.009173
vt 0.662731 0.030529
vt 0.692495 0.338119
vt 0.631876 0.370319
vt 0.557399 0.378392
vt 0.485595 0.357036
vt 0.455831 0.049445
vt 0.516450 0.017245
vt 0.396614 0.684671
vt 0.009173 0.990827
vt 0.009173 0.684548
vt 0.682419 0.684671
vt 0.211146 0.009173
vn -0.8467 0.0000 -0.5321
vn 0.5572 0.0000 -0.8304
vn 0.8467 -0.0000 0.5321
vn -0.5572 -0.0000 0.8304
vn -0.0000 1.0000 0.0000
vn 0.9818 0.0000 -0.1900
vn -0.9818 -0.0000 0.1900
vn 0.0940 -0.0000 0.9956
vn -0.0940 0.0000 -0.9956
vn -0.8467 -0.0000 0.5321
vn 0.9818 -0.0000 0.1900
vn 0.8467 0.0000 -0.5321
vn -0.9818 0.0000 -0.1900
vn -0.5572 0.0000 -0.8304
vn -0.0940 -0.0000 0.9956
vn 0.5572 -0.0000 0.8304
vn 0.0940 0.0000 -0.9956
vn 0.0628 -0.7443 -0.6649
vn 0.3692 -0.7489 0.5503
vn -0.0628 -0.7443 0.6649
vn -0.3692 -0.7489 -0.5503
vn -0.6608 -0.7396 -0.1279
vn 0.5646 -0.7452 -0.3549
vn 0.6608 -0.7396 0.1278
vn -0.5646 -0.7452 0.3549
vn -0.0628 -0.7443 -0.6649
vn 0.0628 -0.7443 0.6649
vn -0.6608 -0.7396 0.1278
vn 0.6608 -0.7396 -0.1279
vn -0.3692 -0.7489 0.5503
vn 0.5646 -0.7452 0.3549
vn 0.3692 -0.7489 -0.5503
vn -0.5646 -0.7452 -0.3549
usemtl マテリアル.005
s 1
f 1/1/1 2/2/1 3/3/1
f 4/4/2 5/5/2 6/6/2
f 7/7/3 8/8/3 9/9/3
f 10/10/4 11/11/4 12/12/4
f 13/13/5 14/14/5 10/15/5
f 1/16/5 15/17/5 16/18/5
f 17/19/6 18/20/6 19/21/6
f 20/22/7 21/23/7 22/24/7
f 23/25/5 24/26/5 25/27/5
f 26/28/5 27/29/5 28/30/5
f 27/31/8 29/32/8 30/33/8
f 31/34/9 32/35/9 33/36/9
f 34/37/5 28/30/5 24/26/5
f 14/38/10 22/24/10 11/39/10
f 15/17/5 20/40/5 13/13/5
f 35/41/11 9/9/11 18/20/11
f 4/42/5 23/25/5 25/27/5
f 36/43/12 19/21/12 5/44/12
f 37/45/5 16/18/5 31/46/5
f 38/47/13 3/3/13 21/23/13
f 31/46/5 23/25/5 39/48/5
f 15/17/5 26/28/5 34/37/5
f 37/49/14 33/36/14 2/50/14
f 16/18/5 34/37/5 23/25/5
f 26/28/5 10/15/5 40/51/5
f 40/52/15 12/12/15 29/32/15
f 36/53/5 25/27/5 17/54/5
f 24/26/5 7/55/5 35/56/5
f 41/57/16 30/33/16 8/58/16
f 28/30/5 41/59/5 7/55/5
f 17/54/5 24/26/5 35/56/5
f 39/60/17 6/6/17 32/35/17
f 42/61/18 32/62/18 6/63/18
f 42/61/19 8/64/19 30/65/19
f 42/61/20 29/66/20 12/67/20
f 42/61/21 2/68/21 33/69/21
f 42/61/22 21/70/22 3/71/22
f 42/61/23 5/72/23 19/73/23
f 42/61/24 18/74/24 9/75/24
f 42/61/25 11/76/25 22/77/25
f 42/61/26 33/69/26 32/62/26
f 42/61/27 30/65/27 29/66/27
f 42/61/28 22/77/28 21/70/28
f 42/61/29 19/73/29 18/74/29
f 42/61/30 12/67/30 11/76/30
f 42/61/31 9/75/31 8/64/31
f 42/61/32 6/63/32 5/72/32
f 42/61/33 3/71/33 2/68/33
f 1/1/1 37/78/1 2/2/1
f 4/4/2 36/79/2 5/5/2
f 7/7/3 41/80/3 8/8/3
f 10/10/4 14/81/4 11/11/4
f 13/13/5 20/40/5 14/14/5
f 1/16/5 38/82/5 15/17/5
f 17/19/6 35/41/6 18/20/6
f 20/22/7 38/47/7 21/23/7
f 23/25/5 34/37/5 24/26/5
f 26/28/5 40/51/5 27/29/5
f 27/31/8 40/52/8 29/32/8
f 31/34/9 39/60/9 32/35/9
f 34/37/5 26/28/5 28/30/5
f 14/38/10 20/22/10 22/24/10
f 15/17/5 38/82/5 20/40/5
f 35/41/11 7/7/11 9/9/11
f 4/42/5 39/48/5 23/25/5
f 36/43/12 17/19/12 19/21/12
f 37/45/5 1/16/5 16/18/5
f 38/47/13 1/1/13 3/3/13
f 31/46/5 16/18/5 23/25/5
f 15/17/5 13/13/5 26/28/5
f 37/49/14 31/34/14 33/36/14
f 16/18/5 15/17/5 34/37/5
f 26/28/5 13/13/5 10/15/5
f 40/52/15 10/10/15 12/12/15
f 36/53/5 4/42/5 25/27/5
f 24/26/5 28/30/5 7/55/5
f 41/57/16 27/31/16 30/33/16
f 28/30/5 27/29/5 41/59/5
f 17/54/5 25/27/5 24/26/5
f 39/60/17 4/4/17 6/6/17
