# Blender v3.1.2 OBJ File: 'pencil.blend'
# www.blender.org
mtllib player.mtl
o 立方体.012
v -0.825229 1.050000 0.434819
v -0.825229 -0.414617 -0.434819
v -0.825229 -0.414617 0.434819
v 0.400000 1.050000 -0.434819
v 0.825229 -0.414617 -0.434819
v 0.400000 -0.414617 -0.434819
v 0.825229 1.050000 -0.434819
v 0.825229 -0.414617 0.434819
v -0.400000 1.050000 0.434819
v -0.400000 -0.414617 0.434819
v 0.652658 -0.691469 -0.296927
v 0.378918 -0.974604 0.113573
v 0.378918 -0.974604 -0.113573
v -0.825229 1.050000 -0.434819
v -0.400000 1.050000 -0.434819
v -0.800000 -0.415506 0.400000
v -0.400000 -0.415506 0.400000
v 0.800000 -0.415506 0.400000
v 0.800000 -0.415506 -0.400000
v 0.400000 -0.415506 -0.400000
v -0.800000 -0.415506 -0.400000
v -0.750946 -0.553487 -0.368350
v -0.750946 -0.553487 0.368350
v 0.750946 -0.553487 -0.368350
v 0.381546 -0.703517 -0.400000
v 0.750946 -0.553487 0.368350
v -0.381546 -0.703518 0.400000
v 0.381546 -0.703518 0.400000
v 0.000000 -0.415506 0.400000
v 0.000000 -0.732753 0.400000
v -0.381546 -0.703517 -0.400000
v 0.000000 -0.415506 -0.400000
v 0.000000 -0.732753 -0.400000
v -0.400000 -0.414617 -0.434819
v -0.400000 -0.415506 -0.400000
v 0.400000 -0.414617 0.434819
v 0.400000 -0.415506 0.400000
v 0.000000 1.050000 -0.434819
v 0.400000 1.050000 0.434819
v 0.000000 -1.050000 -0.148740
v -0.378918 -0.974604 0.113573
v -0.378918 -0.974604 -0.113573
v 0.000000 -0.414617 0.434819
v 0.000000 -0.414617 -0.434819
v -0.652658 -0.691469 0.296927
v -0.652658 -0.691469 -0.296927
v 0.000000 1.050000 0.434819
v 0.825229 1.050000 0.434819
v 0.000000 -1.050000 0.148740
v 0.372320 -0.847523 -0.308730
v 0.000000 -0.891376 -0.308730
v 0.700044 -0.622478 0.327343
v 0.372320 -0.847523 0.308729
v -0.372320 -0.847523 0.308729
v 0.000000 -0.891376 0.308729
v -0.700044 -0.622478 -0.327343
v -0.372320 -0.847523 -0.308730
v -0.700044 -0.622478 0.327343
v 0.700044 -0.622478 -0.327343
v 0.652658 -0.691469 0.296927
v -0.640000 0.953452 1.070155
v -0.640000 -0.166548 0.430155
v -0.640000 -0.166548 1.070155
v -0.640000 0.953452 0.430155
v 0.640000 -0.166548 0.430155
v 0.640000 0.953452 0.430155
v 0.640000 -0.166548 1.070155
v 0.640000 0.953452 1.070155
v 0.600000 0.953452 0.470155
v 0.600000 0.953452 1.030155
v -0.600000 0.953452 0.470155
v -0.600000 -0.131548 1.030155
v -0.600000 0.953452 1.030155
v -0.600000 -0.131548 0.470155
v 0.600000 -0.131548 1.030155
v 0.600000 -0.131548 0.470155
vt 0.361288 0.795277
vt 0.460042 0.637614
vt 0.460042 0.795277
vt 0.797254 0.671628
vt 0.898264 0.633082
vt 0.898264 0.671628
vt 0.208284 0.795277
vt 0.307037 0.637614
vt 0.307037 0.795277
vt 0.815212 0.277585
vt 0.916222 0.239039
vt 0.916222 0.277585
vt 0.552935 0.457013
vt 0.528121 0.531435
vt 0.528121 0.490255
vt 0.176736 0.027125
vt 0.138190 0.184788
vt 0.138190 0.027125
vt 0.269533 0.184788
vt 0.233274 0.178475
vt 0.269534 0.178475
vt 0.380598 0.027125
vt 0.378311 0.178475
vt 0.378311 0.033438
vt 0.342052 0.027125
vt 0.342052 0.033438
vt 0.230987 0.184788
vt 0.233274 0.033438
vt 0.048625 0.827837
vt 0.038358 0.967136
vt 0.038358 0.833575
vt 0.536172 0.746392
vt 0.526349 0.778205
vt 0.516309 0.744719
vt 0.912925 0.027125
vt 0.902659 0.166424
vt 0.902659 0.032863
vt 0.837175 0.135903
vt 0.827352 0.167716
vt 0.817312 0.134230
vt 0.817312 0.065058
vt 0.837175 0.099644
vt 0.815295 0.099644
vt 0.516309 0.675547
vt 0.536172 0.710133
vt 0.514293 0.710133
vt 0.269534 0.027125
vt 0.305793 0.033438
vt 0.269534 0.033438
vt 0.342052 0.184788
vt 0.305793 0.178475
vt 0.342052 0.178475
vt 0.101931 0.027125
vt 0.065672 0.184788
vt 0.065672 0.027125
vt 0.493773 0.483879
vt 0.459425 0.531435
vt 0.459425 0.490255
vt 0.815212 0.350103
vt 0.916222 0.313844
vt 0.916222 0.350103
vt 0.797254 0.744147
vt 0.898264 0.707887
vt 0.898264 0.744147
vt 0.797254 0.782693
vt 0.898264 0.782693
vt 0.434611 0.564677
vt 0.434611 0.457013
vt 0.526349 0.642061
vt 0.536172 0.673874
vt 0.305793 0.184788
vt 0.101931 0.184788
vt 0.815212 0.313844
vt 0.815212 0.388649
vt 0.916222 0.388649
vt 0.027125 0.184788
vt 0.027125 0.027125
vt 0.827352 0.031572
vt 0.837175 0.063385
vt 0.305793 0.027125
vt 0.493773 0.537811
vt 0.797254 0.707887
vt 0.493773 0.438326
vt 0.527523 0.454873
vt 0.493773 0.454873
vt 0.557231 0.570191
vt 0.528360 0.583363
vt 0.527523 0.566816
vt 0.493773 0.583363
vt 0.460023 0.566816
vt 0.493773 0.566816
vt 0.430315 0.451499
vt 0.459187 0.438326
vt 0.460023 0.454873
vt 0.459187 0.583363
vt 0.430315 0.570191
vt 0.897008 0.158990
vt 0.897008 0.040298
vt 0.528360 0.438326
vt 0.557231 0.451499
vt 0.032707 0.959702
vt 0.032707 0.841010
vt 0.027125 0.954188
vt 0.027125 0.846524
vt 0.891426 0.153476
vt 0.891426 0.045812
vt 0.552935 0.564677
vt 0.371450 0.583363
vt 0.226413 0.438326
vt 0.371450 0.438326
vt 0.172162 0.583363
vt 0.027125 0.438326
vt 0.172162 0.438326
vt 0.579886 0.172162
vt 0.434849 0.027125
vt 0.579886 0.027125
vt 0.172162 0.384076
vt 0.027125 0.239039
vt 0.172162 0.239039
vt 0.371450 0.239039
vt 0.226413 0.384076
vt 0.226413 0.239039
vt 0.425701 0.384076
vt 0.430234 0.248103
vt 0.430234 0.375011
vt 0.570738 0.239039
vt 0.570738 0.384076
vt 0.566206 0.248103
vt 0.616096 0.633082
vt 0.743003 0.773587
vt 0.616096 0.773587
vt 0.616096 0.438326
vt 0.752068 0.578831
vt 0.616096 0.578831
vt 0.761044 0.027125
vt 0.634137 0.167630
vt 0.634137 0.027125
vt 0.760961 0.239039
vt 0.624989 0.379543
vt 0.624989 0.239039
vt 0.027125 0.773587
vt 0.154033 0.637614
vt 0.154033 0.773587
vt 0.361288 0.637614
vt 0.797254 0.633082
vt 0.208284 0.637614
vt 0.815212 0.239039
vt 0.176736 0.184788
vt 0.380598 0.184788
vt 0.230987 0.027125
vt 0.048625 0.972874
vt 0.536172 0.782651
vt 0.912925 0.172162
vt 0.837175 0.172162
vt 0.536172 0.637614
vt 0.837175 0.027125
vt 0.561845 0.577625
vt 0.425701 0.444064
vt 0.425701 0.577625
vt 0.561845 0.444064
vt 0.226413 0.583363
vt 0.027125 0.583363
vt 0.434849 0.172162
vt 0.027125 0.384076
vt 0.371450 0.384076
vt 0.425701 0.239039
vt 0.566206 0.375011
vt 0.743003 0.633082
vt 0.752068 0.438326
vt 0.761044 0.167630
vt 0.760961 0.379543
vt 0.027125 0.637614
vn -1.0000 -0.0000 0.0000
vn 0.0000 0.0000 -1.0000
vn 1.0000 -0.0000 0.0000
vn 0.0000 -0.0000 1.0000
vn 0.7189 -0.6951 -0.0000
vn 0.0000 1.0000 0.0000
vn 0.0000 -0.9997 0.0255
vn 0.0352 -0.9994 -0.0000
vn 0.0000 -0.9997 -0.0255
vn -0.0352 -0.9994 -0.0000
vn -0.9422 -0.3350 -0.0000
vn 0.0876 -0.0056 -0.9961
vn 0.9422 -0.3350 -0.0000
vn -0.0876 -0.0056 0.9961
vn -0.1952 -0.9808 0.0000
vn -0.7189 -0.6951 -0.0000
vn -0.0876 -0.0056 -0.9961
vn 0.0876 -0.0056 0.9961
vn 0.1952 -0.9808 0.0000
vn 0.0586 -0.4979 -0.8653
vn 0.3138 -0.5226 0.7928
vn -0.0586 -0.4979 0.8653
vn -0.3138 -0.5226 -0.7928
vn -0.0586 -0.4979 -0.8653
vn 0.0586 -0.4979 0.8653
vn -0.3138 -0.5226 0.7928
vn 0.8047 -0.5937 -0.0000
vn 0.3138 -0.5226 -0.7928
vn -0.8047 -0.5937 -0.0000
vn -0.8243 -0.5662 -0.0000
vn 0.4369 -0.7470 -0.5012
vn 0.8243 -0.5662 -0.0000
vn -0.4369 -0.7470 0.5012
vn 0.2122 -0.8156 0.5383
vn -0.2122 -0.8156 -0.5383
vn -0.4369 -0.7470 -0.5012
vn -0.2122 -0.8156 0.5383
vn 0.4369 -0.7470 0.5012
vn 0.2122 -0.8156 -0.5383
vn 0.0000 -1.0000 -0.0000
vn 0.0000 -0.2236 -0.9747
vn 0.0000 -0.2236 0.9747
vn 0.0411 -0.5368 -0.8427
vn 0.3223 -0.6480 0.6901
vn -0.0411 -0.5368 0.8427
vn -0.3223 -0.6480 -0.6901
vn -0.0411 -0.5368 -0.8427
vn 0.0411 -0.5368 0.8427
vn -0.3223 -0.6480 0.6901
vn 0.3223 -0.6480 -0.6901
vn 0.3474 -0.5677 -0.7464
vn -0.3474 -0.5677 0.7464
vn 0.0834 -0.7077 0.7016
vn -0.0834 -0.7077 -0.7016
vn -0.3474 -0.5677 -0.7464
vn -0.0834 -0.7077 0.7016
vn 0.3474 -0.5677 0.7464
vn 0.0834 -0.7077 -0.7016
usemtl マテリアル.008
s 1
f 1/1/1 2/2/1 3/3/1
f 4/4/2 5/5/2 6/6/2
f 7/7/3 8/8/3 5/9/3
f 9/10/4 3/11/4 10/12/4
f 11/13/5 12/14/5 13/15/5
f 14/16/6 9/17/6 15/18/6
f 10/19/7 16/20/7 17/21/7
f 5/22/8 18/23/8 19/24/8
f 6/25/9 19/24/9 20/26/9
f 3/27/10 21/28/10 16/20/10
f 16/29/11 22/30/11 23/31/11
f 20/32/12 24/33/12 25/34/12
f 19/35/13 26/36/13 24/37/13
f 17/38/14 23/39/14 27/40/14
f 28/41/4 29/42/4 30/43/4
f 31/44/2 32/45/2 33/46/2
f 34/47/9 32/48/9 35/49/9
f 36/50/7 29/51/7 37/52/7
f 38/53/6 39/54/6 4/55/6
f 40/56/15 41/57/15 42/58/15
f 39/59/4 43/60/4 36/61/4
f 15/62/2 44/63/2 34/64/2
f 14/65/2 34/64/2 2/66/2
f 42/58/16 45/67/16 46/68/16
f 21/28/9 34/47/9 35/49/9
f 22/69/17 35/70/17 31/44/17
f 29/42/4 27/40/4 30/43/4
f 43/71/7 17/21/7 29/51/7
f 15/18/6 47/72/6 38/53/6
f 47/73/4 10/12/4 43/60/4
f 48/74/4 36/61/4 8/75/4
f 4/55/6 48/76/6 7/77/6
f 18/23/7 36/50/7 37/52/7
f 26/78/18 37/79/18 28/41/18
f 32/45/2 25/34/2 33/46/2
f 44/80/9 20/26/9 32/48/9
f 13/15/19 49/81/19 40/56/19
f 38/82/2 6/6/2 44/63/2
f 33/83/20 50/84/20 51/85/20
f 52/86/21 28/87/21 53/88/21
f 30/89/22 54/90/22 55/91/22
f 56/92/23 31/93/23 57/94/23
f 57/94/24 33/83/24 51/85/24
f 53/88/25 30/89/25 55/91/25
f 27/95/26 58/96/26 54/90/26
f 24/37/27 52/97/27 59/98/27
f 25/99/28 59/100/28 50/84/28
f 23/31/29 56/101/29 58/102/29
f 58/102/30 46/103/30 45/104/30
f 50/84/31 11/13/31 13/15/31
f 59/98/32 60/105/32 11/106/32
f 54/90/33 45/67/33 41/57/33
f 53/88/34 49/81/34 12/14/34
f 57/94/35 40/56/35 42/58/35
f 46/68/36 57/94/36 42/58/36
f 49/81/37 54/90/37 41/57/37
f 60/107/38 53/88/38 12/14/38
f 40/56/39 50/84/39 13/15/39
f 61/108/1 62/109/1 63/110/1
f 64/111/2 65/112/2 62/113/2
f 66/114/3 67/115/3 65/116/3
f 68/117/4 63/118/4 67/119/4
f 65/120/40 63/121/40 62/122/40
f 68/123/6 69/124/6 70/125/6
f 64/126/6 61/127/6 71/128/6
f 72/129/3 71/130/3 73/131/3
f 74/132/4 69/133/4 71/134/4
f 75/135/1 69/136/1 76/137/1
f 72/138/2 70/139/2 75/140/2
f 72/141/6 76/142/6 74/143/6
f 1/1/1 14/144/1 2/2/1
f 4/4/2 7/145/2 5/5/2
f 7/7/3 48/146/3 8/8/3
f 9/10/4 1/147/4 3/11/4
f 11/13/5 60/107/5 12/14/5
f 14/16/6 1/148/6 9/17/6
f 10/19/7 3/27/7 16/20/7
f 5/22/8 8/149/8 18/23/8
f 6/25/9 5/22/9 19/24/9
f 3/27/10 2/150/10 21/28/10
f 16/29/11 21/151/11 22/30/11
f 20/32/41 19/152/41 24/33/41
f 19/35/13 18/153/13 26/36/13
f 17/38/42 16/154/42 23/39/42
f 28/41/4 37/79/4 29/42/4
f 31/44/2 35/70/2 32/45/2
f 34/47/9 44/80/9 32/48/9
f 36/50/7 43/71/7 29/51/7
f 38/53/6 47/72/6 39/54/6
f 40/56/15 49/81/15 41/57/15
f 39/59/4 47/73/4 43/60/4
f 15/62/2 38/82/2 44/63/2
f 14/65/2 15/62/2 34/64/2
f 42/58/16 41/57/16 45/67/16
f 21/28/9 2/150/9 34/47/9
f 22/69/41 21/155/41 35/70/41
f 29/42/4 17/38/4 27/40/4
f 43/71/7 10/19/7 17/21/7
f 15/18/6 9/17/6 47/72/6
f 47/73/4 9/10/4 10/12/4
f 48/74/4 39/59/4 36/61/4
f 4/55/6 39/54/6 48/76/6
f 18/23/7 8/149/7 36/50/7
f 26/78/42 18/156/42 37/79/42
f 32/45/2 20/32/2 25/34/2
f 44/80/9 6/25/9 20/26/9
f 13/15/19 12/14/19 49/81/19
f 38/82/2 4/4/2 6/6/2
f 33/83/43 25/99/43 50/84/43
f 52/86/44 26/157/44 28/87/44
f 30/89/45 27/95/45 54/90/45
f 56/92/46 22/158/46 31/93/46
f 57/94/47 31/93/47 33/83/47
f 53/88/48 28/87/48 30/89/48
f 27/95/49 23/159/49 58/96/49
f 24/37/27 26/36/27 52/97/27
f 25/99/50 24/160/50 59/100/50
f 23/31/29 22/30/29 56/101/29
f 58/102/30 56/101/30 46/103/30
f 50/84/51 59/100/51 11/13/51
f 59/98/32 52/97/32 60/105/32
f 54/90/52 58/96/52 45/67/52
f 53/88/53 55/91/53 49/81/53
f 57/94/54 51/85/54 40/56/54
f 46/68/55 56/92/55 57/94/55
f 49/81/56 55/91/56 54/90/56
f 60/107/57 52/86/57 53/88/57
f 40/56/58 51/85/58 50/84/58
f 61/108/1 64/161/1 62/109/1
f 64/111/2 66/162/2 65/112/2
f 66/114/3 68/163/3 67/115/3
f 68/117/4 61/164/4 63/118/4
f 65/120/40 67/165/40 63/121/40
f 68/123/6 66/166/6 69/124/6
f 71/128/6 69/124/6 66/166/6
f 61/127/6 68/123/6 70/125/6
f 61/127/6 70/125/6 73/167/6
f 71/128/6 66/166/6 64/126/6
f 61/127/6 73/167/6 71/128/6
f 72/129/3 74/168/3 71/130/3
f 74/132/4 76/169/4 69/133/4
f 75/135/1 70/170/1 69/136/1
f 72/138/2 73/171/2 70/139/2
f 72/141/6 75/172/6 76/142/6
