# Blender v3.1.2 OBJ File: 'hudebako.blend'
# www.blender.org
mtllib boss.mtl
o 立方体
v -1.200000 -1.700000 0.700000
v -1.100000 -1.600000 0.600000
v -1.200000 1.700000 0.700000
v -1.100000 1.600000 0.600000
v -1.200000 -1.700000 -0.700000
v -1.200000 1.700000 -0.700000
v 1.200000 -1.700000 0.700000
v 1.100000 -1.600000 0.600000
v 1.200000 1.700000 0.700000
v 1.100000 1.600000 0.600000
v 1.200000 -1.700000 -0.700000
v 1.200000 1.700000 -0.700000
v 1.100000 1.600000 -0.700000
v -1.100000 1.600000 -0.700000
v -1.100000 -1.600000 -0.700000
v 1.100000 -1.600000 -0.700000
v 0.218461 1.721170 -0.193496
v 0.218461 2.099310 -0.193496
v 0.218461 1.721170 -0.593496
v 0.218461 2.099310 -0.593496
v 0.525133 1.721170 -0.193496
v 0.525133 2.099310 -0.193496
v 0.525133 1.721170 -0.593496
v 0.525133 2.099310 -0.593496
v 0.171797 1.910240 -0.193496
v 0.171797 1.910240 -0.593496
v 0.571797 1.910240 -0.593496
v 0.571797 1.910240 -0.193496
v 0.180662 1.814831 -0.593496
v 0.562932 1.814831 -0.593496
v 0.562932 1.814831 -0.193496
v 0.180662 1.814831 -0.193496
v 0.180662 2.005649 -0.193496
v 0.180662 2.005649 -0.593496
v 0.562932 2.005649 -0.593496
v 0.562932 2.005649 -0.193496
v 0.371797 1.660240 -0.593496
v 0.371797 2.160240 -0.593496
v 0.371797 1.660240 -0.193496
v 0.371797 2.160240 -0.193496
v 0.371797 1.910240 -0.193496
v 0.371797 1.910240 -0.593496
v 0.371797 1.785240 -0.593496
v 0.371797 1.785240 -0.193496
v 0.371797 2.035240 -0.193496
v 0.371797 2.035240 -0.593496
v 0.455800 2.155818 -0.593496
v 0.455800 1.664662 -0.193496
v 0.471797 1.910240 -0.593496
v 0.471797 1.785240 -0.593496
v 0.471797 2.035240 -0.593496
v 0.455800 1.664662 -0.593496
v 0.455800 2.155818 -0.193496
v 0.471797 1.910240 -0.193496
v 0.471797 1.785240 -0.193496
v 0.471797 2.035240 -0.193496
v 0.287794 1.664662 -0.593496
v 0.287794 2.155818 -0.193496
v 0.271797 1.910240 -0.193496
v 0.271797 1.785240 -0.193496
v 0.271797 2.035240 -0.193496
v 0.287794 2.155818 -0.593496
v 0.287794 1.664662 -0.193496
v 0.271797 1.910240 -0.593496
v 0.271797 1.785240 -0.593496
v 0.271797 2.035240 -0.593496
v -0.525133 1.721170 -0.193496
v -0.525133 2.099310 -0.193496
v -0.525133 1.721170 -0.593496
v -0.525133 2.099310 -0.593496
v -0.218461 1.721170 -0.193496
v -0.218461 2.099310 -0.193496
v -0.218461 1.721170 -0.593496
v -0.218461 2.099310 -0.593496
v -0.571797 1.910240 -0.193496
v -0.571797 1.910240 -0.593496
v -0.171797 1.910240 -0.593496
v -0.171797 1.910240 -0.193496
v -0.562932 1.814831 -0.593496
v -0.180662 1.814831 -0.593496
v -0.180662 1.814831 -0.193496
v -0.562932 1.814831 -0.193496
v -0.562932 2.005649 -0.193496
v -0.562932 2.005649 -0.593496
v -0.180662 2.005649 -0.593496
v -0.180662 2.005649 -0.193496
v -0.371797 1.660240 -0.593496
v -0.371797 2.160240 -0.593496
v -0.371797 1.660240 -0.193496
v -0.371797 2.160240 -0.193496
v -0.371797 1.910240 -0.193496
v -0.371797 1.910240 -0.593496
v -0.371797 1.785240 -0.593496
v -0.371797 1.785240 -0.193496
v -0.371797 2.035240 -0.193496
v -0.371797 2.035240 -0.593496
v -0.287794 2.155818 -0.593496
v -0.287794 1.664662 -0.193496
v -0.271797 1.910240 -0.593496
v -0.271797 1.785240 -0.593496
v -0.271797 2.035240 -0.593496
v -0.287794 1.664662 -0.593496
v -0.287794 2.155818 -0.193496
v -0.271797 1.910240 -0.193496
v -0.271797 1.785240 -0.193496
v -0.271797 2.035240 -0.193496
v -0.455800 1.664662 -0.593496
v -0.455800 2.155818 -0.193496
v -0.471797 1.910240 -0.193496
v -0.471797 1.785240 -0.193496
v -0.471797 2.035240 -0.193496
v -0.455800 2.155818 -0.593496
v -0.455800 1.664662 -0.193496
v -0.471797 1.910240 -0.593496
v -0.471797 1.785240 -0.593496
v -0.471797 2.035240 -0.593496
vt 0.018808 0.677433
vt 0.155252 0.540988
vt 0.155252 0.677433
vt 0.540988 0.329312
vt 0.540988 0.192868
vt 0.545001 0.323627
vt 0.677433 0.329312
vt 0.673419 0.198553
vt 0.677433 0.192868
vt 0.540988 0.155252
vt 0.677433 0.018808
vt 0.677433 0.155252
vt 0.366928 0.503372
vt 0.503372 0.366928
vt 0.503372 0.503372
vt 0.155252 0.192868
vt 0.018808 0.329312
vt 0.018808 0.192868
vt 0.329312 0.192868
vt 0.192868 0.329312
vt 0.192868 0.192868
vt 0.714927 0.661380
vt 0.841626 0.532962
vt 0.841626 0.661380
vt 0.841626 0.366928
vt 0.714927 0.495346
vt 0.714927 0.366928
vt 0.840001 0.698996
vt 0.714927 0.827414
vt 0.714927 0.698996
vt 0.840122 0.145506
vt 0.715048 0.018808
vt 0.840122 0.018808
vt 0.715048 0.309820
vt 0.840122 0.183122
vt 0.840122 0.309820
vt 0.877617 0.835440
vt 0.900877 0.698996
vt 0.900877 0.835440
vt 0.641796 0.644666
vt 0.658499 0.663579
vt 0.632420 0.675386
vt 0.879241 0.503372
vt 0.906486 0.366928
vt 0.906486 0.503372
vt 0.641796 0.470606
vt 0.658499 0.489519
vt 0.632420 0.501326
vt 0.333205 0.851372
vt 0.359345 0.714927
vt 0.359345 0.851372
vt 0.121529 0.715048
vt 0.095390 0.851493
vt 0.095390 0.715048
vt 0.607715 0.469171
vt 0.580394 0.499135
vt 0.573634 0.467736
vt 0.932677 0.503372
vt 0.957933 0.366928
vt 0.957933 0.503372
vt 0.607715 0.643231
vt 0.580394 0.673195
vt 0.573634 0.641796
vt 0.926133 0.835440
vt 0.952323 0.698996
vt 0.952323 0.835440
vt 0.979568 0.698996
vt 0.979568 0.835440
vt 0.555400 0.659237
vt 0.540988 0.634959
vt 0.981192 0.366928
vt 0.981192 0.503372
vt 0.555400 0.485177
vt 0.540988 0.460899
vt 0.606279 0.503252
vt 0.932677 0.366928
vt 0.606279 0.677312
vt 0.926133 0.698996
vt 0.644666 0.576504
vt 0.609150 0.609150
vt 0.610585 0.575069
vt 0.644666 0.402444
vt 0.609150 0.435090
vt 0.610585 0.401009
vt 0.543399 0.403641
vt 0.575069 0.433655
vt 0.540988 0.432219
vt 0.543399 0.577701
vt 0.575069 0.607715
vt 0.540988 0.606279
vt 0.576504 0.573634
vt 0.576504 0.399574
vt 0.067024 0.715048
vt 0.039115 0.851493
vt 0.039115 0.715048
vt 0.387710 0.851372
vt 0.415619 0.714927
vt 0.415619 0.851372
vt 0.677312 0.409280
vt 0.643231 0.436525
vt 0.677312 0.583341
vt 0.643231 0.610585
vt 0.662900 0.385002
vt 0.637906 0.371045
vt 0.018808 0.851493
vt 0.018808 0.715048
vt 0.585880 0.368854
vt 0.559801 0.380661
vt 0.612020 0.366928
vt 0.387710 0.714927
vt 0.674901 0.640599
vt 0.662900 0.559063
vt 0.637906 0.545105
vt 0.435926 0.714927
vt 0.435926 0.851372
vt 0.585880 0.542914
vt 0.559801 0.554721
vt 0.612020 0.540988
vt 0.067024 0.851493
vt 0.674901 0.466539
vt 0.877738 0.329312
vt 0.900997 0.192868
vt 0.900997 0.329312
vt 0.293675 0.644666
vt 0.310379 0.663579
vt 0.284300 0.675386
vt 0.877738 0.155252
vt 0.904983 0.018808
vt 0.904983 0.155252
vt 0.467615 0.644666
vt 0.484318 0.663579
vt 0.458239 0.675386
vt 0.192868 0.851372
vt 0.219007 0.714927
vt 0.219007 0.851372
vt 0.576263 0.714927
vt 0.550124 0.851372
vt 0.550124 0.714927
vt 0.433534 0.643231
vt 0.406213 0.673195
vt 0.399453 0.641796
vt 0.931173 0.155252
vt 0.956429 0.018808
vt 0.956429 0.155252
vt 0.259595 0.643231
vt 0.232273 0.673195
vt 0.225514 0.641796
vt 0.926253 0.329312
vt 0.952444 0.192868
vt 0.952444 0.329312
vt 0.979689 0.192868
vt 0.979689 0.329312
vt 0.207280 0.659237
vt 0.192868 0.634959
vt 0.979689 0.018808
vt 0.979689 0.155252
vt 0.381219 0.659237
vt 0.366807 0.634959
vt 0.432099 0.677312
vt 0.931173 0.018808
vt 0.258159 0.677312
vt 0.926253 0.192868
vt 0.296546 0.576504
vt 0.261030 0.609150
vt 0.262465 0.575069
vt 0.470485 0.576504
vt 0.434969 0.609150
vt 0.436404 0.575069
vt 0.369218 0.577701
vt 0.400888 0.607715
vt 0.366807 0.606279
vt 0.195279 0.577701
vt 0.226949 0.607715
vt 0.192868 0.606279
vt 0.228384 0.573634
vt 0.402323 0.573634
vt 0.521758 0.714927
vt 0.493849 0.851372
vt 0.493849 0.714927
vt 0.247373 0.851372
vt 0.275282 0.714927
vt 0.275282 0.851372
vt 0.503131 0.583341
vt 0.469050 0.610585
vt 0.329192 0.583341
vt 0.295111 0.610585
vt 0.488719 0.559063
vt 0.463725 0.545105
vt 0.473542 0.851372
vt 0.473542 0.714927
vt 0.411699 0.542914
vt 0.385620 0.554721
vt 0.437839 0.540988
vt 0.247373 0.714927
vt 0.326780 0.640599
vt 0.314780 0.559063
vt 0.289786 0.545105
vt 0.295589 0.714927
vt 0.295589 0.851372
vt 0.237760 0.542914
vt 0.211681 0.554721
vt 0.263900 0.540988
vt 0.521758 0.851372
vt 0.500720 0.640599
vt 0.018808 0.540988
vt 0.673419 0.323627
vt 0.545001 0.198553
vt 0.540988 0.018808
vt 0.366928 0.366928
vt 0.155252 0.329312
vt 0.329312 0.329312
vt 0.714927 0.532962
vt 0.841626 0.495346
vt 0.840001 0.827414
vt 0.715048 0.145506
vt 0.715048 0.183122
vt 0.877617 0.698996
vt 0.879241 0.366928
vt 0.333205 0.714927
vt 0.121529 0.851493
vt 0.677312 0.437960
vt 0.677312 0.612020
vt 0.877738 0.192868
vt 0.877738 0.018808
vt 0.192868 0.714927
vt 0.576263 0.851372
vt 0.503131 0.612020
vt 0.329192 0.612020
vn -1.0000 0.0000 0.0000
vn 0.0000 0.0000 -1.0000
vn 1.0000 0.0000 0.0000
vn 0.0000 0.0000 1.0000
vn 0.0000 -1.0000 0.0000
vn 0.0000 1.0000 0.0000
vn -0.9273 0.3742 0.0000
vn 0.9273 0.3742 0.0000
vn 0.6318 -0.7752 0.0000
vn -0.6318 0.7752 0.0000
vn 0.9957 -0.0925 0.0000
vn -0.9957 -0.0925 0.0000
vn -0.9273 -0.3742 0.0000
vn 0.9273 -0.3742 0.0000
vn 0.9957 0.0925 0.0000
vn -0.9957 0.0925 0.0000
vn 0.0526 0.9986 0.0000
vn -0.0526 -0.9986 0.0000
vn 0.6318 0.7752 0.0000
vn 0.0526 -0.9986 0.0000
vn -0.6318 -0.7752 0.0000
vn -0.0526 0.9986 0.0000
usemtl マテリアル.002
s off
f 3/1/1 5/2/1 1/3/1
f 6/4/2 12/5/2 14/6/2
f 5/7/2 16/8/2 11/9/2
f 12/10/3 7/11/3 11/12/3
f 9/13/4 1/14/4 7/15/4
f 11/16/5 1/17/5 5/18/5
f 6/19/6 9/20/6 12/21/6
f 4/22/3 15/23/3 14/24/3
f 8/25/1 13/26/1 16/27/1
f 2/28/2 10/29/2 8/30/2
f 2/31/6 16/32/6 15/33/6
f 4/34/5 13/35/5 10/36/5
f 18/37/7 34/38/7 33/39/7
f 51/40/2 24/41/2 35/42/2
f 24/43/8 36/44/8 35/45/8
f 61/46/4 18/47/4 33/48/4
f 23/49/9 48/50/9 52/51/9
f 20/52/10 58/53/10 62/54/10
f 59/55/4 32/56/4 60/57/4
f 27/58/11 31/59/11 30/60/11
f 49/61/2 30/62/2 50/63/2
f 25/64/12 29/65/12 32/66/12
f 32/66/13 19/67/13 17/68/13
f 50/63/2 23/69/2 52/70/2
f 30/60/14 21/71/14 23/72/14
f 60/57/4 17/73/4 63/74/4
f 59/55/4 33/48/4 25/75/4
f 35/45/15 28/76/15 27/58/15
f 49/61/2 35/42/2 27/77/2
f 33/39/16 26/78/16 25/64/16
f 66/79/2 42/80/2 64/81/2
f 56/82/4 41/83/4 54/84/4
f 48/85/4 44/86/4 39/87/4
f 57/88/2 43/89/2 37/90/2
f 64/81/2 43/89/2 65/91/2
f 54/84/4 44/86/4 55/92/4
f 38/93/17 53/94/17 47/95/17
f 37/96/18 63/97/18 57/98/18
f 53/99/4 45/100/4 56/82/4
f 62/101/2 46/102/2 66/79/2
f 22/103/4 56/82/4 36/104/4
f 47/95/19 22/105/19 24/106/19
f 31/107/4 54/84/4 55/92/4
f 21/108/4 55/92/4 48/85/4
f 36/104/4 54/84/4 28/109/4
f 46/102/2 49/61/2 42/80/2
f 43/89/2 52/70/2 37/90/2
f 42/80/2 50/63/2 43/89/2
f 52/51/20 39/110/20 37/96/20
f 46/102/2 47/111/2 51/40/2
f 20/112/2 66/79/2 34/113/2
f 57/98/21 17/114/21 19/115/21
f 29/116/2 64/81/2 65/91/2
f 19/117/2 65/91/2 57/88/2
f 34/113/2 64/81/2 26/118/2
f 45/100/4 59/55/4 41/83/4
f 44/86/4 63/74/4 39/87/4
f 41/83/4 60/57/4 44/86/4
f 62/54/22 40/119/22 38/93/22
f 45/100/4 58/120/4 61/46/4
f 68/121/7 84/122/7 83/123/7
f 101/124/2 74/125/2 85/126/2
f 74/127/8 86/128/8 85/129/8
f 111/130/4 68/131/4 83/132/4
f 73/133/9 98/134/9 102/135/9
f 70/136/10 108/137/10 112/138/10
f 109/139/4 82/140/4 110/141/4
f 77/142/11 81/143/11 80/144/11
f 99/145/2 80/146/2 100/147/2
f 75/148/12 79/149/12 82/150/12
f 82/150/13 69/151/13 67/152/13
f 100/147/2 73/153/2 102/154/2
f 80/144/14 71/155/14 73/156/14
f 110/141/4 67/157/4 113/158/4
f 109/139/4 83/132/4 75/159/4
f 85/129/15 78/160/15 77/142/15
f 99/145/2 85/126/2 77/161/2
f 83/123/16 76/162/16 75/148/16
f 116/163/2 92/164/2 114/165/2
f 106/166/4 91/167/4 104/168/4
f 98/169/4 94/170/4 89/171/4
f 107/172/2 93/173/2 87/174/2
f 114/165/2 93/173/2 115/175/2
f 104/168/4 94/170/4 105/176/4
f 88/177/17 103/178/17 97/179/17
f 87/180/18 113/181/18 107/182/18
f 103/183/4 95/184/4 106/166/4
f 112/185/2 96/186/2 116/163/2
f 72/187/4 106/166/4 86/188/4
f 97/179/19 72/189/19 74/190/19
f 81/191/4 104/168/4 105/176/4
f 71/192/4 105/176/4 98/169/4
f 86/188/4 104/168/4 78/193/4
f 96/186/2 99/145/2 92/164/2
f 93/173/2 102/154/2 87/174/2
f 92/164/2 100/147/2 93/173/2
f 102/135/20 89/194/20 87/180/20
f 96/186/2 97/195/2 101/124/2
f 70/196/2 116/163/2 84/197/2
f 107/182/21 67/198/21 69/199/21
f 79/200/2 114/165/2 115/175/2
f 69/201/2 115/175/2 107/172/2
f 84/197/2 114/165/2 76/202/2
f 95/184/4 109/139/4 91/167/4
f 94/170/4 113/158/4 89/171/4
f 91/167/4 110/141/4 94/170/4
f 112/138/22 90/203/22 88/177/22
f 95/184/4 108/204/4 111/130/4
f 3/1/1 6/205/1 5/2/1
f 15/206/2 5/7/2 6/4/2
f 12/5/2 11/9/2 16/8/2
f 12/5/2 16/8/2 13/207/2
f 14/6/2 15/206/2 6/4/2
f 12/5/2 13/207/2 14/6/2
f 5/7/2 15/206/2 16/8/2
f 12/10/3 9/208/3 7/11/3
f 9/13/4 3/209/4 1/14/4
f 11/16/5 7/210/5 1/17/5
f 6/19/6 3/211/6 9/20/6
f 4/22/3 2/212/3 15/23/3
f 8/25/1 10/213/1 13/26/1
f 2/28/2 4/214/2 10/29/2
f 2/31/6 8/215/6 16/32/6
f 4/34/5 14/216/5 13/35/5
f 18/37/7 20/217/7 34/38/7
f 51/40/2 47/111/2 24/41/2
f 24/43/8 22/218/8 36/44/8
f 61/46/4 58/120/4 18/47/4
f 23/49/9 21/219/9 48/50/9
f 20/52/10 18/220/10 58/53/10
f 59/55/4 25/75/4 32/56/4
f 27/58/11 28/76/11 31/59/11
f 49/61/2 27/77/2 30/62/2
f 25/64/12 26/78/12 29/65/12
f 32/66/13 29/65/13 19/67/13
f 50/63/2 30/62/2 23/69/2
f 30/60/14 31/59/14 21/71/14
f 60/57/4 32/56/4 17/73/4
f 59/55/4 61/46/4 33/48/4
f 35/45/15 36/44/15 28/76/15
f 49/61/2 51/40/2 35/42/2
f 33/39/16 34/38/16 26/78/16
f 66/79/2 46/102/2 42/80/2
f 56/82/4 45/100/4 41/83/4
f 48/85/4 55/92/4 44/86/4
f 57/88/2 65/91/2 43/89/2
f 64/81/2 42/80/2 43/89/2
f 54/84/4 41/83/4 44/86/4
f 38/93/17 40/119/17 53/94/17
f 37/96/18 39/110/18 63/97/18
f 53/99/4 40/221/4 45/100/4
f 62/101/2 38/222/2 46/102/2
f 22/103/4 53/99/4 56/82/4
f 47/95/19 53/94/19 22/105/19
f 31/107/4 28/109/4 54/84/4
f 21/108/4 31/107/4 55/92/4
f 36/104/4 56/82/4 54/84/4
f 46/102/2 51/40/2 49/61/2
f 43/89/2 50/63/2 52/70/2
f 42/80/2 49/61/2 50/63/2
f 52/51/20 48/50/20 39/110/20
f 46/102/2 38/222/2 47/111/2
f 20/112/2 62/101/2 66/79/2
f 57/98/21 63/97/21 17/114/21
f 29/116/2 26/118/2 64/81/2
f 19/117/2 29/116/2 65/91/2
f 34/113/2 66/79/2 64/81/2
f 45/100/4 61/46/4 59/55/4
f 44/86/4 60/57/4 63/74/4
f 41/83/4 59/55/4 60/57/4
f 62/54/22 58/53/22 40/119/22
f 45/100/4 40/221/4 58/120/4
f 68/121/7 70/223/7 84/122/7
f 101/124/2 97/195/2 74/125/2
f 74/127/8 72/224/8 86/128/8
f 111/130/4 108/204/4 68/131/4
f 73/133/9 71/225/9 98/134/9
f 70/136/10 68/226/10 108/137/10
f 109/139/4 75/159/4 82/140/4
f 77/142/11 78/160/11 81/143/11
f 99/145/2 77/161/2 80/146/2
f 75/148/12 76/162/12 79/149/12
f 82/150/13 79/149/13 69/151/13
f 100/147/2 80/146/2 73/153/2
f 80/144/14 81/143/14 71/155/14
f 110/141/4 82/140/4 67/157/4
f 109/139/4 111/130/4 83/132/4
f 85/129/15 86/128/15 78/160/15
f 99/145/2 101/124/2 85/126/2
f 83/123/16 84/122/16 76/162/16
f 116/163/2 96/186/2 92/164/2
f 106/166/4 95/184/4 91/167/4
f 98/169/4 105/176/4 94/170/4
f 107/172/2 115/175/2 93/173/2
f 114/165/2 92/164/2 93/173/2
f 104/168/4 91/167/4 94/170/4
f 88/177/17 90/203/17 103/178/17
f 87/180/18 89/194/18 113/181/18
f 103/183/4 90/227/4 95/184/4
f 112/185/2 88/228/2 96/186/2
f 72/187/4 103/183/4 106/166/4
f 97/179/19 103/178/19 72/189/19
f 81/191/4 78/193/4 104/168/4
f 71/192/4 81/191/4 105/176/4
f 86/188/4 106/166/4 104/168/4
f 96/186/2 101/124/2 99/145/2
f 93/173/2 100/147/2 102/154/2
f 92/164/2 99/145/2 100/147/2
f 102/135/20 98/134/20 89/194/20
f 96/186/2 88/228/2 97/195/2
f 70/196/2 112/185/2 116/163/2
f 107/182/21 113/181/21 67/198/21
f 79/200/2 76/202/2 114/165/2
f 69/201/2 79/200/2 115/175/2
f 84/197/2 116/163/2 114/165/2
f 95/184/4 111/130/4 109/139/4
f 94/170/4 110/141/4 113/158/4
f 91/167/4 109/139/4 110/141/4
f 112/138/22 108/137/22 90/203/22
f 95/184/4 90/227/4 108/204/4
