# Blender v3.1.2 OBJ File: 'keshigomu.blend'
# www.blender.org
mtllib eraser.mtl
o 立方体
v -0.815823 -0.987813 0.371159
v -1.031536 1.500000 0.543524
v -0.815823 -0.987813 -0.371159
v -1.031536 1.500000 -0.543524
v 0.815823 -0.987813 0.371159
v 1.031536 1.500000 0.543524
v 0.815823 -0.987813 -0.371159
v 1.031536 1.500000 -0.543524
v -1.031536 -0.592310 0.543524
v -1.031536 -0.592310 -0.543524
v 1.031536 -0.592310 -0.543524
v 1.031536 -0.592310 0.543524
v -1.000000 -0.593580 -0.500000
v 1.000000 -0.593580 -0.500000
v 1.000000 -0.593580 0.500000
v -1.000000 -0.593580 0.500000
v 0.000000 -1.500000 -0.185925
v 0.000000 1.500000 -0.543524
v 0.000000 -1.500000 0.185925
v 0.000000 1.500000 0.543524
v 0.000000 -0.592310 0.543524
v 0.000000 -0.592310 -0.543524
v 0.000000 -0.593580 -0.500000
v 0.000000 -0.593580 0.500000
v -0.473647 -1.392292 -0.141966
v -0.500000 1.500000 0.543524
v -0.500000 -0.592310 0.543524
v -0.500000 -0.593580 0.500000
v -0.500000 1.500000 -0.543524
v -0.473647 -1.392292 0.141966
v -0.500000 -0.592310 -0.543524
v -0.500000 -0.593580 -0.500000
v 0.500000 1.500000 -0.543524
v 0.473647 -1.392292 0.141966
v 0.500000 -0.592310 -0.543524
v 0.500000 -0.593580 -0.500000
v 0.473647 -1.392292 -0.141966
v 0.500000 1.500000 0.543524
v 0.500000 -0.592310 0.543524
v 0.500000 -0.593580 0.500000
v -0.938683 -0.790696 -0.460437
v 0.938683 -0.790696 -0.460437
v 0.938683 -0.790696 0.460437
v -0.938683 -0.790696 0.460437
v 0.000000 -1.046790 0.500000
v 0.000000 -1.046790 -0.500000
v -0.476933 -1.005025 -0.500000
v -0.476933 -1.005025 0.500000
v 0.476933 -1.005025 0.500000
v 0.476933 -1.005025 -0.500000
v -0.875055 -0.889254 -0.409179
v 0.875055 -0.889254 -0.409179
v 0.875055 -0.889254 0.409179
v 0.000000 -1.273395 0.385912
v 0.000000 -1.273395 -0.385912
v -0.465400 -1.210747 -0.385912
v -0.465400 -1.210747 0.385912
v 0.465400 -1.210747 0.385912
v 0.465400 -1.210747 -0.385912
v -0.875055 -0.889254 0.409179
vt 0.019898 0.697872
vt 0.222489 0.378783
vt 0.222489 0.697872
vt 0.637805 0.426616
vt 0.842236 0.353232
vt 0.842236 0.426616
vt 0.353232 0.672320
vt 0.555822 0.353232
vt 0.555822 0.672320
vt 0.668566 0.093282
vt 0.872997 0.019898
vt 0.872997 0.093282
vt 0.610738 0.057718
vt 0.560517 0.208339
vt 0.560517 0.124994
vt 0.313435 0.019898
vt 0.240051 0.338987
vt 0.240051 0.019898
vt 0.637805 0.759949
vt 0.650581 0.686565
vt 0.650581 0.759949
vt 0.555945 0.366007
vt 0.555945 0.659544
vt 0.978886 0.573384
vt 0.966110 0.646769
vt 0.966110 0.573384
vt 0.222612 0.391559
vt 0.222612 0.685096
vt 0.242993 0.403172
vt 0.242993 0.673483
vt 0.926314 0.573384
vt 0.906434 0.637769
vt 0.886113 0.569999
vt 0.576327 0.377621
vt 0.576327 0.647931
vt 0.957075 0.240051
vt 0.937194 0.304436
vt 0.916874 0.236665
vt 0.916874 0.096668
vt 0.957075 0.166667
vt 0.912793 0.166667
vt 0.886113 0.430001
vt 0.926314 0.500000
vt 0.882033 0.500000
vt 0.978886 0.426616
vt 0.966110 0.500000
vt 0.966110 0.426616
vt 0.637805 0.906718
vt 0.650581 0.833333
vt 0.650581 0.906718
vt 0.166667 0.019898
vt 0.093282 0.338987
vt 0.093282 0.019898
vt 0.491001 0.112091
vt 0.421484 0.208339
vt 0.421484 0.124994
vt 0.668566 0.240051
vt 0.872997 0.166667
vt 0.872997 0.240051
vt 0.637805 0.573384
vt 0.842236 0.500000
vt 0.842236 0.573384
vt 0.637805 0.646769
vt 0.842236 0.646769
vt 0.371263 0.275616
vt 0.371263 0.057718
vt 0.966110 0.353232
vt 0.906434 0.362231
vt 0.926314 0.426616
vt 0.637805 0.833333
vt 0.166667 0.338987
vt 0.668566 0.166667
vt 0.668566 0.313435
vt 0.872997 0.313435
vt 0.019898 0.338987
vt 0.019898 0.019898
vt 0.650581 0.980102
vt 0.937194 0.028898
vt 0.957075 0.093282
vt 0.978886 0.500000
vt 0.491001 0.221242
vt 0.637805 0.500000
vt 0.491001 0.019898
vt 0.559307 0.053387
vt 0.491001 0.053387
vt 0.619431 0.286776
vt 0.560999 0.313435
vt 0.559307 0.279946
vt 0.491001 0.313435
vt 0.422695 0.279946
vt 0.491001 0.279946
vt 0.362570 0.046558
vt 0.421002 0.019898
vt 0.422695 0.053387
vt 0.421002 0.313435
vt 0.362570 0.286776
vt 0.587214 0.392667
vt 0.587214 0.632885
vt 0.560999 0.019898
vt 0.619431 0.046558
vt 0.253881 0.418219
vt 0.253881 0.658437
vt 0.264675 0.429379
vt 0.264675 0.647277
vt 0.598009 0.403827
vt 0.598009 0.621725
vt 0.610738 0.275616
vt 0.019898 0.378783
vt 0.637805 0.353232
vt 0.353232 0.353232
vt 0.668566 0.019898
vt 0.313435 0.338987
vt 0.637805 0.686565
vt 0.978886 0.646769
vt 0.926314 0.646769
vt 0.957075 0.313435
vt 0.978886 0.353232
vt 0.926314 0.353232
vt 0.637805 0.980102
vt 0.957075 0.019898
vt 0.628770 0.301822
vt 0.353232 0.031511
vt 0.353232 0.301822
vt 0.628770 0.031511
vn -1.0000 0.0000 0.0000
vn 0.0000 0.0000 -1.0000
vn 1.0000 0.0000 0.0000
vn 0.0000 0.0000 1.0000
vn 0.7635 -0.6459 0.0000
vn 0.0000 1.0000 0.0000
vn 0.0000 -0.9996 0.0292
vn 0.0402 -0.9992 0.0000
vn 0.0000 -0.9996 -0.0292
vn -0.0402 -0.9992 0.0000
vn -0.9549 -0.2970 0.0000
vn 0.0876 -0.0049 -0.9961
vn 0.9549 -0.2970 0.0000
vn -0.0876 -0.0049 0.9961
vn -0.2217 -0.9751 0.0000
vn -0.7635 -0.6459 0.0000
vn -0.0876 -0.0049 -0.9961
vn 0.0876 -0.0049 0.9961
vn 0.2217 -0.9751 0.0000
vn 0.0604 -0.4489 -0.8916
vn 0.3244 -0.4726 0.8194
vn -0.0604 -0.4489 0.8916
vn -0.3244 -0.4726 -0.8194
vn -0.0604 -0.4489 -0.8916
vn 0.0604 -0.4489 0.8916
vn -0.3244 -0.4726 0.8194
vn 0.8401 -0.5424 0.0000
vn 0.3244 -0.4726 -0.8194
vn -0.8401 -0.5424 0.0000
vn -0.8571 -0.5151 0.0000
vn 0.4686 -0.7010 -0.5375
vn 0.8571 -0.5151 0.0000
vn -0.4686 -0.7010 0.5375
vn 0.2310 -0.7768 0.5859
vn -0.2310 -0.7768 -0.5859
vn -0.4686 -0.7010 -0.5375
vn -0.2310 -0.7768 0.5859
vn 0.4686 -0.7010 0.5375
vn 0.2310 -0.7768 -0.5859
vn 0.0000 -0.1968 -0.9804
vn 0.0000 -0.1968 0.9804
vn 0.0426 -0.4864 -0.8727
vn 0.3394 -0.5971 0.7268
vn -0.0426 -0.4864 0.8727
vn -0.3394 -0.5971 -0.7268
vn -0.0426 -0.4864 -0.8727
vn 0.0426 -0.4864 0.8727
vn -0.3394 -0.5971 0.7268
vn 0.3394 -0.5971 -0.7268
vn 0.3613 -0.5166 -0.7763
vn -0.3613 -0.5166 0.7763
vn 0.0887 -0.6591 0.7468
vn -0.0887 -0.6591 -0.7468
vn -0.3613 -0.5166 -0.7763
vn -0.0887 -0.6591 0.7468
vn 0.3613 -0.5166 0.7763
vn 0.0887 -0.6591 -0.7468
usemtl マテリアル.002
s off
f 2/1/1 10/2/1 9/3/1
f 33/4/2 11/5/2 35/6/2
f 8/7/3 12/8/3 11/9/3
f 26/10/4 9/11/4 27/12/4
f 7/13/5 34/14/5 37/15/5
f 4/16/6 26/17/6 29/18/6
f 27/19/7 16/20/7 28/21/7
f 11/9/8 15/22/8 14/23/8
f 35/24/9 14/25/9 36/26/9
f 9/3/10 13/27/10 16/28/10
f 16/28/11 41/29/11 44/30/11
f 36/31/12 42/32/12 50/33/12
f 14/23/13 43/34/13 42/35/13
f 28/36/14 44/37/14 48/38/14
f 49/39/4 24/40/4 45/41/4
f 47/42/2 23/43/2 46/44/2
f 31/45/9 23/46/9 32/47/9
f 39/48/7 24/49/7 40/50/7
f 18/51/6 38/52/6 33/53/6
f 17/54/15 30/55/15 25/56/15
f 38/57/4 21/58/4 39/59/4
f 29/60/2 22/61/2 31/62/2
f 4/63/2 31/62/2 10/64/2
f 25/56/16 1/65/16 3/66/16
f 13/67/9 31/45/9 32/47/9
f 41/68/17 32/69/17 47/42/17
f 24/40/4 48/38/4 45/41/4
f 21/70/7 28/21/7 24/49/7
f 29/18/6 20/71/6 18/51/6
f 20/72/4 27/12/4 21/58/4
f 6/73/4 39/59/4 12/74/4
f 33/53/6 6/75/6 8/76/6
f 15/77/7 39/48/7 40/50/7
f 43/78/18 40/79/18 49/39/18
f 23/43/2 50/33/2 46/44/2
f 22/80/9 36/26/9 23/46/9
f 37/15/19 19/81/19 17/54/19
f 18/82/2 35/6/2 22/61/2
f 46/83/20 59/84/20 55/85/20
f 53/86/21 49/87/21 58/88/21
f 45/89/22 57/90/22 54/91/22
f 51/92/23 47/93/23 56/94/23
f 56/94/24 46/83/24 55/85/24
f 58/88/25 45/89/25 54/91/25
f 48/95/26 60/96/26 57/90/26
f 42/35/27 53/97/27 52/98/27
f 50/99/28 52/100/28 59/84/28
f 44/30/29 51/101/29 60/102/29
f 60/102/30 3/103/30 1/104/30
f 59/84/31 7/13/31 37/15/31
f 52/98/32 5/105/32 7/106/32
f 57/90/33 1/65/33 30/55/33
f 58/88/34 19/81/34 34/14/34
f 56/94/35 17/54/35 25/56/35
f 3/66/36 56/94/36 25/56/36
f 19/81/37 57/90/37 30/55/37
f 5/107/38 58/88/38 34/14/38
f 17/54/39 59/84/39 37/15/39
f 2/1/1 4/108/1 10/2/1
f 33/4/2 8/109/2 11/5/2
f 8/7/3 6/110/3 12/8/3
f 26/10/4 2/111/4 9/11/4
f 7/13/5 5/107/5 34/14/5
f 4/16/6 2/112/6 26/17/6
f 27/19/7 9/113/7 16/20/7
f 11/9/8 12/8/8 15/22/8
f 35/24/9 11/114/9 14/25/9
f 9/3/10 10/2/10 13/27/10
f 16/28/11 13/27/11 41/29/11
f 36/31/40 14/115/40 42/32/40
f 14/23/13 15/22/13 43/34/13
f 28/36/41 16/116/41 44/37/41
f 49/39/4 40/79/4 24/40/4
f 47/42/2 32/69/2 23/43/2
f 31/45/9 22/80/9 23/46/9
f 39/48/7 21/70/7 24/49/7
f 18/51/6 20/71/6 38/52/6
f 17/54/15 19/81/15 30/55/15
f 38/57/4 20/72/4 21/58/4
f 29/60/2 18/82/2 22/61/2
f 4/63/2 29/60/2 31/62/2
f 25/56/16 30/55/16 1/65/16
f 13/67/9 10/117/9 31/45/9
f 41/68/40 13/118/40 32/69/40
f 24/40/4 28/36/4 48/38/4
f 21/70/7 27/19/7 28/21/7
f 29/18/6 26/17/6 20/71/6
f 20/72/4 26/10/4 27/12/4
f 6/73/4 38/57/4 39/59/4
f 33/53/6 38/52/6 6/75/6
f 15/77/7 12/119/7 39/48/7
f 43/78/41 15/120/41 40/79/41
f 23/43/2 36/31/2 50/33/2
f 22/80/9 35/24/9 36/26/9
f 37/15/19 34/14/19 19/81/19
f 18/82/2 33/4/2 35/6/2
f 46/83/42 50/99/42 59/84/42
f 53/86/43 43/121/43 49/87/43
f 45/89/44 48/95/44 57/90/44
f 51/92/45 41/122/45 47/93/45
f 56/94/46 47/93/46 46/83/46
f 58/88/47 49/87/47 45/89/47
f 48/95/48 44/123/48 60/96/48
f 42/35/27 43/34/27 53/97/27
f 50/99/49 42/124/49 52/100/49
f 44/30/29 41/29/29 51/101/29
f 60/102/30 51/101/30 3/103/30
f 59/84/50 52/100/50 7/13/50
f 52/98/32 53/97/32 5/105/32
f 57/90/51 60/96/51 1/65/51
f 58/88/52 54/91/52 19/81/52
f 56/94/53 55/85/53 17/54/53
f 3/66/54 51/92/54 56/94/54
f 19/81/55 54/91/55 57/90/55
f 5/107/56 53/86/56 58/88/56
f 17/54/57 55/85/57 59/84/57
