# Blender v3.1.2 OBJ File: 'syasihin.blend'
# www.blender.org
mtllib lead.mtl
o 立方体
v -0.400000 -1.000000 0.200000
v -0.400000 1.000000 0.200000
v -0.400000 -1.000000 -0.200000
v -0.400000 1.000000 -0.200000
v 0.400000 -1.000000 0.200000
v 0.400000 1.000000 0.200000
v 0.400000 -1.000000 -0.200000
v 0.400000 1.000000 -0.200000
v 0.107266 0.189098 -0.195179
v 0.107266 0.522773 -0.195179
v 0.107266 0.189098 -0.256123
v 0.107266 0.522773 -0.256123
v 0.440940 0.189098 -0.195179
v 0.440940 0.522773 -0.195179
v 0.440940 0.189098 -0.256123
v 0.440940 0.522773 -0.256123
v -0.440940 0.189098 -0.195179
v -0.440940 0.522773 -0.195179
v -0.440940 0.189098 -0.256123
v -0.440940 0.522773 -0.256123
v -0.107266 0.189098 -0.195179
v -0.107266 0.522773 -0.195179
v -0.107266 0.189098 -0.256123
v -0.107266 0.522773 -0.256123
vt 0.184746 0.184746
vt 0.015254 0.015254
vt 0.184746 0.015254
vt 0.184746 0.384746
vt 0.015254 0.215254
vt 0.184746 0.215254
vt 0.384746 0.184746
vt 0.215254 0.015254
vt 0.384746 0.015254
vt 0.384746 0.384746
vt 0.215254 0.215254
vt 0.384746 0.215254
vt 0.184746 0.415254
vt 0.015254 0.584746
vt 0.015254 0.415254
vt 0.584746 0.015254
vt 0.415254 0.184746
vt 0.415254 0.015254
vt 0.584746 0.384746
vt 0.415254 0.215254
vt 0.584746 0.215254
vt 0.384746 0.584746
vt 0.215254 0.415254
vt 0.384746 0.415254
vt 0.584746 0.584746
vt 0.415254 0.415254
vt 0.584746 0.415254
vt 0.184746 0.784746
vt 0.015254 0.615254
vt 0.184746 0.615254
vt 0.784746 0.015254
vt 0.615254 0.184746
vt 0.615254 0.015254
vt 0.384746 0.615254
vt 0.215254 0.784746
vt 0.215254 0.615254
vt 0.784746 0.384746
vt 0.615254 0.215254
vt 0.784746 0.215254
vt 0.584746 0.784746
vt 0.415254 0.615254
vt 0.584746 0.615254
vt 0.784746 0.584746
vt 0.615254 0.415254
vt 0.784746 0.415254
vt 0.784746 0.784746
vt 0.615254 0.615254
vt 0.784746 0.615254
vt 0.184746 0.815254
vt 0.015254 0.984746
vt 0.015254 0.815254
vt 0.984746 0.015254
vt 0.815254 0.184746
vt 0.815254 0.015254
vt 0.015254 0.184746
vt 0.015254 0.384746
vt 0.215254 0.184746
vt 0.215254 0.384746
vt 0.184746 0.584746
vt 0.584746 0.184746
vt 0.415254 0.384746
vt 0.215254 0.584746
vt 0.415254 0.584746
vt 0.015254 0.784746
vt 0.784746 0.184746
vt 0.384746 0.784746
vt 0.615254 0.384746
vt 0.415254 0.784746
vt 0.615254 0.584746
vt 0.615254 0.784746
vt 0.184746 0.984746
vt 0.984746 0.184746
vn -1.0000 0.0000 0.0000
vn 0.0000 0.0000 -1.0000
vn 1.0000 0.0000 0.0000
vn 0.0000 0.0000 1.0000
vn 0.0000 -1.0000 0.0000
vn 0.0000 1.0000 0.0000
usemtl マテリアル.004
s off
f 2/1/1 3/2/1 1/3/1
f 4/4/2 7/5/2 3/6/2
f 8/7/3 5/8/3 7/9/3
f 6/10/4 1/11/4 5/12/4
f 7/13/5 1/14/5 3/15/5
f 4/16/6 6/17/6 8/18/6
f 10/19/1 11/20/1 9/21/1
f 12/22/2 15/23/2 11/24/2
f 16/25/3 13/26/3 15/27/3
f 14/28/4 9/29/4 13/30/4
f 15/31/5 9/32/5 11/33/5
f 12/34/6 14/35/6 16/36/6
f 18/37/1 19/38/1 17/39/1
f 20/40/2 23/41/2 19/42/2
f 24/43/3 21/44/3 23/45/3
f 22/46/4 17/47/4 21/48/4
f 23/49/5 17/50/5 19/51/5
f 20/52/6 22/53/6 24/54/6
f 2/1/1 4/55/1 3/2/1
f 4/4/2 8/56/2 7/5/2
f 8/7/3 6/57/3 5/8/3
f 6/10/4 2/58/4 1/11/4
f 7/13/5 5/59/5 1/14/5
f 4/16/6 2/60/6 6/17/6
f 10/19/1 12/61/1 11/20/1
f 12/22/2 16/62/2 15/23/2
f 16/25/3 14/63/3 13/26/3
f 14/28/4 10/64/4 9/29/4
f 15/31/5 13/65/5 9/32/5
f 12/34/6 10/66/6 14/35/6
f 18/37/1 20/67/1 19/38/1
f 20/40/2 24/68/2 23/41/2
f 24/43/3 22/69/3 21/44/3
f 22/46/4 18/70/4 17/47/4
f 23/49/5 21/71/5 17/50/5
f 20/52/6 18/72/6 22/53/6
