# Blender v3.1.2 OBJ File: 'table_.blend'
# www.blender.org
mtllib table.mtl
o 立方体
v 1.000000 0.099131 -1.461729
v 1.000000 -0.099131 -1.461729
v 1.000000 0.099131 1.461729
v 1.000000 -0.099131 1.461729
v -1.000000 0.099131 -1.461729
v -1.000000 -0.099131 -1.461729
v -1.000000 0.099131 1.461729
v -1.000000 -0.099131 1.461729
v -0.687158 -1.786300 -1.412842
v -0.687158 -0.013700 -1.412842
v -0.687158 -1.786300 -1.187158
v -0.687158 -0.013700 -1.187158
v -0.912842 -1.786300 -1.412842
v -0.912842 -0.013700 -1.412842
v -0.912842 -1.786300 -1.187158
v -0.912842 -0.013700 -1.187158
v -0.687158 -1.786300 1.187158
v -0.687158 -0.013700 1.187158
v -0.687158 -1.786300 1.412842
v -0.687158 -0.013700 1.412842
v -0.912842 -1.786300 1.187158
v -0.912842 -0.013700 1.187158
v -0.912842 -1.786300 1.412842
v -0.912842 -0.013700 1.412842
v 0.912842 -1.786300 -1.412842
v 0.912842 -0.013700 -1.412842
v 0.912842 -1.786300 -1.187158
v 0.912842 -0.013700 -1.187158
v 0.687158 -1.786300 -1.412842
v 0.687158 -0.013700 -1.412842
v 0.687158 -1.786300 -1.187158
v 0.687158 -0.013700 -1.187158
v 0.912842 -1.786300 1.187158
v 0.912842 -0.013700 1.187158
v 0.912842 -1.786300 1.412842
v 0.912842 -0.013700 1.412842
v 0.687158 -1.786300 1.187158
v 0.687158 -0.013700 1.187158
v 0.687158 -1.786300 1.412842
v 0.687158 -0.013700 1.412842
vt 0.480769 0.314103
vt 0.480769 0.185897
vt 0.352564 0.185897
vt 0.314103 0.480769
vt 0.314103 0.352564
vt 0.185897 0.352564
vt 0.480769 0.480769
vt 0.480769 0.352564
vt 0.352564 0.352564
vt 0.147436 0.647436
vt 0.147436 0.519231
vt 0.019231 0.519231
vt 0.647436 0.019231
vt 0.519231 0.019231
vt 0.519231 0.147436
vt 0.314103 0.519231
vt 0.185897 0.519231
vt 0.185897 0.647436
vt 0.647436 0.314103
vt 0.647436 0.185897
vt 0.519231 0.185897
vt 0.480769 0.647436
vt 0.480769 0.519231
vt 0.352564 0.519231
vt 0.647436 0.480769
vt 0.647436 0.352564
vt 0.519231 0.352564
vt 0.647436 0.647436
vt 0.647436 0.519231
vt 0.519231 0.519231
vt 0.147436 0.685897
vt 0.019231 0.685897
vt 0.019231 0.814103
vt 0.814103 0.019231
vt 0.685897 0.019231
vt 0.685897 0.147436
vt 0.814103 0.314103
vt 0.814103 0.185897
vt 0.685897 0.185897
vt 0.314103 0.814103
vt 0.314103 0.685897
vt 0.185897 0.685897
vt 0.480769 0.814103
vt 0.480769 0.685897
vt 0.352564 0.685897
vt 0.814103 0.480769
vt 0.814103 0.352564
vt 0.685897 0.352564
vt 0.814103 0.519231
vt 0.685897 0.519231
vt 0.685897 0.647436
vt 0.647436 0.685897
vt 0.519231 0.685897
vt 0.519231 0.814103
vt 0.814103 0.814103
vt 0.814103 0.685897
vt 0.685897 0.685897
vt 0.980769 0.147436
vt 0.980769 0.019231
vt 0.852564 0.019231
vt 0.147436 0.980769
vt 0.147436 0.852564
vt 0.019231 0.852564
vt 0.980769 0.314103
vt 0.980769 0.185897
vt 0.852564 0.185897
vt 0.314103 0.852564
vt 0.185897 0.852564
vt 0.185897 0.980769
vt 0.480769 0.852564
vt 0.352564 0.852564
vt 0.352564 0.980769
vt 0.147436 0.147436
vt 0.147436 0.019231
vt 0.019231 0.019231
vt 0.147436 0.314103
vt 0.147436 0.185897
vt 0.019231 0.185897
vt 0.314103 0.147436
vt 0.314103 0.019231
vt 0.185897 0.019231
vt 0.314103 0.314103
vt 0.314103 0.185897
vt 0.185897 0.185897
vt 0.147436 0.352564
vt 0.019231 0.352564
vt 0.019231 0.480769
vt 0.480769 0.019231
vt 0.352564 0.019231
vt 0.352564 0.147436
vt 0.352564 0.314103
vt 0.185897 0.480769
vt 0.352564 0.480769
vt 0.019231 0.647436
vt 0.647436 0.147436
vt 0.314103 0.647436
vt 0.519231 0.314103
vt 0.352564 0.647436
vt 0.519231 0.480769
vt 0.519231 0.647436
vt 0.147436 0.814103
vt 0.814103 0.147436
vt 0.685897 0.314103
vt 0.185897 0.814103
vt 0.352564 0.814103
vt 0.685897 0.480769
vt 0.814103 0.647436
vt 0.647436 0.814103
vt 0.685897 0.814103
vt 0.852564 0.147436
vt 0.019231 0.980769
vt 0.852564 0.314103
vt 0.314103 0.980769
vt 0.480769 0.980769
vt 0.019231 0.147436
vt 0.019231 0.314103
vt 0.185897 0.147436
vt 0.185897 0.314103
vt 0.147436 0.480769
vt 0.480769 0.147436
vn 1.0000 0.0000 0.0000
vn 0.0000 0.0000 1.0000
vn -1.0000 0.0000 0.0000
vn 0.0000 0.0000 -1.0000
vn 0.0000 1.0000 0.0000
vn 0.0000 -1.0000 0.0000
usemtl マテリアル
s off
f 2/1/1 1/2/1 3/3/1
f 4/4/2 3/5/2 7/6/2
f 8/7/3 7/8/3 5/9/3
f 6/10/4 5/11/4 1/12/4
f 7/13/5 3/14/5 1/15/5
f 4/16/6 8/17/6 6/18/6
f 10/19/3 9/20/3 11/21/3
f 12/22/4 11/23/4 15/24/4
f 16/25/1 15/26/1 13/27/1
f 14/28/2 13/29/2 9/30/2
f 15/31/5 11/32/5 9/33/5
f 12/34/6 16/35/6 14/36/6
f 18/37/3 17/38/3 19/39/3
f 20/40/4 19/41/4 23/42/4
f 24/43/1 23/44/1 21/45/1
f 22/46/2 21/47/2 17/48/2
f 23/49/5 19/50/5 17/51/5
f 20/52/6 24/53/6 22/54/6
f 26/55/3 25/56/3 27/57/3
f 28/58/4 27/59/4 31/60/4
f 32/61/1 31/62/1 29/63/1
f 30/64/2 29/65/2 25/66/2
f 31/67/5 27/68/5 25/69/5
f 28/70/6 32/71/6 30/72/6
f 34/73/3 33/74/3 35/75/3
f 36/76/4 35/77/4 39/78/4
f 40/79/1 39/80/1 37/81/1
f 38/82/2 37/83/2 33/84/2
f 39/85/5 35/86/5 33/87/5
f 36/88/6 40/89/6 38/90/6
f 2/1/1 3/3/1 4/91/1
f 4/4/2 7/6/2 8/92/2
f 8/7/3 5/9/3 6/93/3
f 6/10/4 1/12/4 2/94/4
f 7/13/5 1/15/5 5/95/5
f 4/16/6 6/18/6 2/96/6
f 10/19/3 11/21/3 12/97/3
f 12/22/4 15/24/4 16/98/4
f 16/25/1 13/27/1 14/99/1
f 14/28/2 9/30/2 10/100/2
f 15/31/5 9/33/5 13/101/5
f 12/34/6 14/36/6 10/102/6
f 18/37/3 19/39/3 20/103/3
f 20/40/4 23/42/4 24/104/4
f 24/43/1 21/45/1 22/105/1
f 22/46/2 17/48/2 18/106/2
f 23/49/5 17/51/5 21/107/5
f 20/52/6 22/54/6 18/108/6
f 26/55/3 27/57/3 28/109/3
f 28/58/4 31/60/4 32/110/4
f 32/61/1 29/63/1 30/111/1
f 30/64/2 25/66/2 26/112/2
f 31/67/5 25/69/5 29/113/5
f 28/70/6 30/72/6 26/114/6
f 34/73/3 35/75/3 36/115/3
f 36/76/4 39/78/4 40/116/4
f 40/79/1 37/81/1 38/117/1
f 38/82/2 33/84/2 34/118/2
f 39/85/5 33/87/5 37/119/5
f 36/88/6 38/90/6 34/120/6
