# Blender v3.1.2 OBJ File: 'yazirushi.blend'
# www.blender.org
mtllib yazirushi.mtl
o 立方体
v -0.001899 -0.500000 2.000017
v 0.498101 -0.500000 1.200017
v -0.001899 0.500000 2.000017
v 0.498101 0.500000 1.200017
v -0.501899 -0.500000 1.200017
v -0.501899 0.500000 1.200017
v 0.298101 -0.500000 0.000017
v 0.298101 0.500000 0.000017
v 0.298101 -0.500000 1.200017
v 0.298101 0.500000 1.200017
v -0.301899 -0.500000 0.000017
v -0.301899 0.500000 0.000017
v -0.301899 -0.500000 1.200017
v -0.301899 0.500000 1.200017
vt 0.532468 0.667292
vt 0.286438 0.399580
vt 0.532468 0.399580
vt 0.779462 0.315478
vt 0.779462 0.590547
vt 0.559406 0.480520
vt 0.259499 0.667292
vt 0.013469 0.399580
vt 0.259499 0.399580
vt 0.779462 0.013469
vt 0.779462 0.288539
vt 0.559406 0.178511
vt 0.805436 0.617486
vt 0.559406 0.863516
vt 0.559406 0.617486
vt 0.286438 0.372642
vt 0.532468 0.013469
vt 0.532468 0.372642
vt 0.188026 0.694230
vt 0.335644 0.940260
vt 0.188026 0.940260
vt 0.259499 0.013469
vt 0.013469 0.372642
vt 0.013469 0.013469
vt 0.013469 0.694230
vt 0.161087 0.940260
vt 0.013469 0.940260
vt 0.954019 0.013469
vt 0.806401 0.382514
vt 0.806401 0.013469
vt 0.979993 0.617486
vt 0.832375 0.986531
vt 0.832375 0.617486
vt 0.286438 0.667292
vt 0.013469 0.667292
vt 0.805436 0.863516
vt 0.286438 0.013469
vt 0.335644 0.694230
vt 0.259499 0.372642
vt 0.161087 0.694230
vt 0.954019 0.382514
vt 0.979993 0.986531
vn 0.8480 0.0000 0.5300
vn 0.0000 1.0000 0.0000
vn -0.8480 0.0000 0.5300
vn 0.0000 -1.0000 0.0000
vn 0.0000 0.0000 -1.0000
vn 1.0000 0.0000 0.0000
vn 0.0000 0.0000 1.0000
vn -1.0000 0.0000 0.0000
usemtl マテリアル
s off
f 2/1/1 3/2/1 1/3/1
f 3/4/2 4/5/2 6/6/2
f 6/7/3 1/8/3 3/9/3
f 1/10/4 5/11/4 2/12/4
f 4/13/5 5/14/5 6/15/5
f 8/16/6 9/17/6 7/18/6
f 10/19/7 13/20/7 9/21/7
f 14/22/8 11/23/8 13/24/8
f 12/25/5 7/26/5 11/27/5
f 13/28/4 7/29/4 9/30/4
f 10/31/2 12/32/2 14/33/2
f 2/1/1 4/34/1 3/2/1
f 6/7/3 5/35/3 1/8/3
f 4/13/5 2/36/5 5/14/5
f 8/16/6 10/37/6 9/17/6
f 10/19/7 14/38/7 13/20/7
f 14/22/8 12/39/8 11/23/8
f 12/25/5 8/40/5 7/26/5
f 13/28/4 11/41/4 7/29/4
f 10/31/2 8/42/2 12/32/2
