# Blender v3.1.2 OBJ File: 'ball.blend'
# www.blender.org
mtllib ball.mtl
o ICO球
v 0.000000 -1.000000 0.000000
v -0.723607 -0.447220 -0.525725
v 0.276388 -0.447220 -0.850649
v 0.894426 -0.447216 0.000000
v 0.276388 -0.447220 0.850649
v -0.723607 -0.447220 0.525725
v -0.276388 0.447220 -0.850649
v 0.723607 0.447220 -0.525725
v 0.723607 0.447220 0.525725
v -0.276388 0.447220 0.850649
v -0.894426 0.447216 0.000000
v 0.000000 1.000000 0.000000
v 0.162456 -0.850654 -0.499995
v -0.425323 -0.850654 -0.309011
v -0.262869 -0.525738 -0.809012
v -0.850648 -0.525736 0.000000
v -0.425323 -0.850654 0.309011
v 0.525730 -0.850652 0.000000
v 0.688189 -0.525736 -0.499997
v 0.162456 -0.850654 0.499995
v 0.688189 -0.525736 0.499997
v -0.262869 -0.525738 0.809012
v -0.951058 0.000000 -0.309013
v -0.951058 0.000000 0.309013
v 0.000000 0.000000 -1.000000
v -0.587786 0.000000 -0.809017
v 0.951058 0.000000 -0.309013
v 0.587786 0.000000 -0.809017
v 0.587786 0.000000 0.809017
v 0.951058 0.000000 0.309013
v -0.587786 0.000000 0.809017
v 0.000000 0.000000 1.000000
v -0.688189 0.525736 -0.499997
v 0.262869 0.525738 -0.809012
v 0.850648 0.525736 0.000000
v 0.262869 0.525738 0.809012
v -0.688189 0.525736 0.499997
v -0.162456 0.850654 -0.499995
v -0.525730 0.850652 0.000000
v 0.425323 0.850654 -0.309011
v 0.425323 0.850654 0.309011
v -0.162456 0.850654 0.499995
vt 0.239732 0.499769
vt 0.124297 0.491113
vt 0.199820 0.399614
vt 0.018233 0.499769
vt 0.060759 0.604750
vt 0.313153 0.456702
vt 0.307672 0.583483
vt 0.190952 0.604749
vt 0.449805 0.078619
vt 0.538012 0.018233
vt 0.552540 0.124817
vt 0.909932 0.116899
vt 0.981767 0.071237
vt 0.980819 0.198135
vt 0.688573 0.124811
vt 0.794259 0.112371
vt 0.734821 0.228207
vt 0.220536 0.302761
vt 0.117800 0.256564
vt 0.231896 0.190690
vt 0.853963 0.695352
vt 0.741392 0.695352
vt 0.797839 0.604938
vt 0.438444 0.190690
vt 0.864933 0.223557
vt 0.026426 0.190691
vt 0.018233 0.084107
vt 0.117800 0.124817
vt 0.316937 0.256562
vt 0.927951 0.609588
vt 0.449804 0.302761
vt 0.552540 0.256564
vt 0.538013 0.363148
vt 0.463022 0.403635
vt 0.575521 0.399615
vt 0.522339 0.491986
vt 0.349619 0.596966
vt 0.392145 0.491985
vt 0.455682 0.605622
vt 0.752839 0.498279
vt 0.681005 0.452618
vt 0.796305 0.399614
vt 0.974198 0.506192
vt 0.868512 0.493752
vt 0.926416 0.404265
vt 0.644539 0.640033
vt 0.531205 0.697121
vt 0.571118 0.596967
vt 0.401011 0.697121
vt 0.639058 0.513252
vt 0.414940 0.363148
vt 0.652107 0.297275
vt 0.643914 0.190691
vt 0.681952 0.579516
vt 0.316936 0.124815
vt 0.220535 0.078619
vt 0.132328 0.018233
vt 0.364862 0.399614
vt 0.921380 0.313971
vt 0.808809 0.313971
vt 0.353403 0.256562
vt 0.255400 0.363148
vt 0.353404 0.124815
vt 0.652107 0.084107
vt 0.131635 0.693100
vt 0.033475 0.697121
vt 0.244135 0.697121
vt 0.132327 0.363148
vt 0.018233 0.297275
vt 0.736356 0.022884
vt 0.866467 0.018233
vt 0.069625 0.399614
vn -0.1024 -0.9435 -0.3151
vn -0.7002 -0.6617 -0.2680
vn 0.2680 -0.9435 -0.1947
vn 0.2680 -0.9435 0.1947
vn -0.1024 -0.9435 0.3151
vn -0.9050 -0.3304 -0.2680
vn -0.0247 -0.3304 -0.9435
vn 0.8897 -0.3304 -0.3151
vn 0.5746 -0.3304 0.7488
vn -0.5346 -0.3304 0.7779
vn -0.8026 -0.1256 -0.5831
vn 0.3066 -0.1256 -0.9435
vn 0.9921 -0.1256 0.0000
vn 0.3066 -0.1256 0.9435
vn -0.8026 -0.1256 0.5831
vn -0.4089 0.6617 -0.6284
vn 0.4713 0.6617 -0.5831
vn 0.7002 0.6617 0.2680
vn -0.0385 0.6617 0.7488
vn -0.7240 0.6617 0.1947
vn -0.2680 0.9435 0.1947
vn -0.4911 0.7947 0.3568
vn -0.4089 0.6617 0.6284
vn 0.1024 0.9435 0.3151
vn 0.1876 0.7947 0.5773
vn 0.4713 0.6617 0.5831
vn 0.3313 0.9435 0.0000
vn 0.6071 0.7947 0.0000
vn 0.7002 0.6617 -0.2680
vn 0.1024 0.9435 -0.3151
vn 0.1876 0.7947 -0.5773
vn -0.0385 0.6617 -0.7488
vn -0.2680 0.9435 -0.1947
vn -0.4911 0.7947 -0.3568
vn -0.7240 0.6617 -0.1947
vn -0.8897 0.3304 0.3151
vn -0.7947 0.1876 0.5773
vn -0.5746 0.3304 0.7488
vn 0.0247 0.3304 0.9435
vn 0.3035 0.1876 0.9342
vn 0.5346 0.3304 0.7779
vn 0.9050 0.3304 0.2680
vn 0.9822 0.1876 0.0000
vn 0.9050 0.3304 -0.2680
vn 0.5346 0.3304 -0.7779
vn 0.3035 0.1876 -0.9342
vn 0.0247 0.3304 -0.9435
vn -0.5746 0.3304 -0.7488
vn -0.7947 0.1876 -0.5773
vn -0.8897 0.3304 -0.3151
vn -0.3066 0.1256 0.9435
vn -0.3035 -0.1876 0.9342
vn -0.0247 -0.3304 0.9435
vn 0.8026 0.1256 0.5831
vn 0.7947 -0.1876 0.5773
vn 0.8897 -0.3304 0.3151
vn 0.8026 0.1256 -0.5831
vn 0.7947 -0.1876 -0.5773
vn 0.5746 -0.3304 -0.7488
vn -0.3066 0.1256 -0.9435
vn -0.3035 -0.1876 -0.9342
vn -0.5346 -0.3304 -0.7779
vn -0.9921 0.1256 0.0000
vn -0.9822 -0.1876 0.0000
vn -0.9050 -0.3304 0.2680
vn -0.4713 -0.6617 0.5831
vn -0.1876 -0.7947 0.5773
vn 0.0385 -0.6617 0.7488
vn 0.4089 -0.6617 0.6284
vn 0.4911 -0.7947 0.3568
vn 0.7240 -0.6617 0.1947
vn 0.7240 -0.6617 -0.1947
vn 0.4911 -0.7947 -0.3568
vn 0.4089 -0.6617 -0.6284
vn -0.7002 -0.6617 0.2680
vn -0.6071 -0.7947 0.0000
vn -0.3313 -0.9435 0.0000
vn 0.0385 -0.6617 -0.7488
vn -0.1876 -0.7947 -0.5773
vn -0.4713 -0.6617 -0.5831
usemtl マテリアル.001
s off
f 1/1/1 14/2/1 13/3/1
f 2/4/2 14/2/2 16/5/2
f 1/1/3 13/3/3 18/6/3
f 1/1/4 18/6/4 20/7/4
f 1/1/5 20/7/5 17/8/5
f 2/9/6 16/10/6 23/11/6
f 3/12/7 15/13/7 25/14/7
f 4/15/8 19/16/8 27/17/8
f 5/18/9 21/19/9 29/20/9
f 6/21/10 22/22/10 31/23/10
f 2/9/11 23/11/11 26/24/11
f 3/12/12 25/14/12 28/25/12
f 4/26/13 27/27/13 30/28/13
f 5/18/14 29/20/14 32/29/14
f 6/21/15 31/23/15 24/30/15
f 7/31/16 33/32/16 38/33/16
f 8/34/17 34/35/17 40/36/17
f 9/37/18 35/38/18 41/39/18
f 10/40/19 36/41/19 42/42/19
f 11/43/20 37/44/20 39/45/20
f 39/46/21 42/47/21 12/48/21
f 39/45/22 37/44/22 42/42/22
f 37/44/23 10/40/23 42/42/23
f 42/47/24 41/39/24 12/48/24
f 42/47/25 36/49/25 41/39/25
f 36/49/26 9/37/26 41/39/26
f 41/39/27 40/36/27 12/48/27
f 41/39/28 35/38/28 40/36/28
f 35/38/29 8/34/29 40/36/29
f 40/36/30 38/50/30 12/48/30
f 40/36/31 34/35/31 38/50/31
f 34/51/32 7/31/32 38/33/32
f 38/50/33 39/46/33 12/48/33
f 38/33/34 33/32/34 39/52/34
f 33/32/35 11/53/35 39/52/35
f 24/30/36 37/44/36 11/43/36
f 24/30/37 31/23/37 37/44/37
f 31/23/38 10/40/38 37/44/38
f 32/54/39 36/41/39 10/40/39
f 32/29/40 29/20/40 36/55/40
f 29/20/41 9/56/41 36/55/41
f 30/28/42 35/57/42 9/56/42
f 30/28/43 27/27/43 35/57/43
f 27/58/44 8/34/44 35/38/44
f 28/25/45 34/59/45 8/60/45
f 28/25/46 25/14/46 34/59/46
f 25/61/47 7/31/47 34/51/47
f 26/24/48 33/32/48 7/31/48
f 26/24/49 23/11/49 33/32/49
f 23/11/50 11/53/50 33/32/50
f 31/23/51 32/54/51 10/40/51
f 31/23/52 22/22/52 32/54/52
f 22/62/53 5/18/53 32/29/53
f 29/20/54 30/28/54 9/56/54
f 29/20/55 21/19/55 30/28/55
f 21/19/56 4/26/56 30/28/56
f 27/17/57 28/25/57 8/60/57
f 27/17/58 19/16/58 28/25/58
f 19/16/59 3/12/59 28/25/59
f 25/61/60 26/24/60 7/31/60
f 25/61/61 15/63/61 26/24/61
f 15/63/62 2/9/62 26/24/62
f 23/11/63 24/64/63 11/53/63
f 23/11/64 16/10/64 24/64/64
f 16/5/65 6/65/65 24/66/65
f 17/8/66 22/67/66 6/65/66
f 17/8/67 20/7/67 22/67/67
f 20/68/68 5/18/68 22/62/68
f 20/68/69 21/19/69 5/18/69
f 20/68/70 18/69/70 21/19/70
f 18/69/71 4/26/71 21/19/71
f 18/70/72 19/16/72 4/15/72
f 18/70/73 13/71/73 19/16/73
f 13/71/74 3/12/74 19/16/74
f 16/5/75 17/8/75 6/65/75
f 16/5/76 14/2/76 17/8/76
f 14/2/77 1/1/77 17/8/77
f 13/71/78 15/13/78 3/12/78
f 13/3/79 14/2/79 15/72/79
f 14/2/80 2/4/80 15/72/80
