# Blender v3.1.2 OBJ File: ''
# www.blender.org
mtllib note.mtl
o 立方体
v 1.448086 0.000000 -1.000000
v 1.409873 0.200000 -0.973983
v 1.448086 0.000000 1.000000
v 1.409873 0.200000 0.973983
v -1.448086 0.000000 -1.000000
v -1.417947 0.200000 -0.958850
v -1.448086 0.000000 1.000000
v -1.417947 0.200000 0.958850
v 1.448086 0.052387 -1.000000
v 1.448086 0.052387 1.000000
v -1.448086 0.052387 1.000000
v -1.448086 0.052387 -1.000000
v 0.000000 0.000000 0.978961
v 0.000000 0.200000 0.937811
v 0.000000 0.000000 -0.978961
v 0.000000 0.200000 -0.937811
v 0.000000 0.052387 -0.978961
v 0.000000 0.052387 0.978961
v 1.448086 0.062977 -1.000000
v 1.448086 0.062977 1.000000
v -1.448086 0.062977 1.000000
v -1.448086 0.062977 -1.000000
v 0.000000 0.062977 -0.978961
v 0.000000 0.062977 0.978961
v 1.409873 0.067677 -0.973983
v 1.409873 0.067677 0.973983
v -1.417947 0.067677 0.958850
v -1.417947 0.067677 -0.958850
v 0.000000 0.067677 -0.937811
v 0.000000 0.067677 0.937811
v -0.027632 0.200000 0.958850
v -0.028219 0.000000 -1.000000
v -0.028219 0.052387 1.000000
v -0.028219 0.000000 1.000000
v -0.027632 0.200000 -0.958850
v -0.028219 0.052387 -1.000000
v -0.028219 0.062977 -1.000000
v -0.028219 0.062977 1.000000
v -0.027632 0.067677 -0.958850
v -0.027632 0.067677 0.958850
v 0.028062 0.000000 1.000000
v 0.027321 0.200000 -0.959143
v 0.028062 0.052387 -1.000000
v 0.027321 0.200000 0.959143
v 0.028062 0.000000 -1.000000
v 0.028062 0.052387 1.000000
v 0.028062 0.062977 1.000000
v 0.028062 0.062977 -1.000000
v 0.027321 0.067677 0.959143
v 0.027321 0.067677 -0.959143
vt 0.116223 0.348948
vt 0.319817 0.348948
vt 0.319817 0.651052
vt 0.116223 0.651052
vt 0.342977 0.876141
vt 0.342977 0.670927
vt 0.491876 0.670927
vt 0.491876 0.876141
vt 0.449647 0.017962
vt 0.653773 0.017962
vt 0.653773 0.315371
vt 0.449647 0.315371
vt 0.829109 0.116538
vt 0.829109 0.321753
vt 0.681036 0.321753
vt 0.681036 0.116538
vt 0.169689 0.011580
vt 0.321753 0.011580
vt 0.321753 0.321753
vt 0.169689 0.321753
vt 0.642779 0.499698
vt 0.645080 0.647766
vt 0.342977 0.647766
vt 0.345279 0.499698
vt 0.829014 0.011580
vt 0.829014 0.092826
vt 0.676933 0.092826
vt 0.676933 0.011580
vt 0.344914 0.011580
vt 0.425728 0.011580
vt 0.425728 0.321753
vt 0.344914 0.321753
vt 0.343024 0.981100
vt 0.343024 0.899854
vt 0.495087 0.899854
vt 0.495087 0.981099
vt 0.011580 0.344914
vt 0.092184 0.344914
vt 0.092184 0.655086
vt 0.011580 0.655086
vt 0.850099 0.345125
vt 0.852520 0.425903
vt 0.849250 0.425692
vt 0.846828 0.344914
vt 0.882671 0.345194
vt 0.885110 0.425761
vt 0.881838 0.425481
vt 0.879399 0.344914
vt 0.642733 0.493813
vt 0.639470 0.496772
vt 0.348587 0.496772
vt 0.345324 0.493813
vt 0.163661 0.011580
vt 0.166667 0.014843
vt 0.166667 0.318490
vt 0.163661 0.321753
vt 0.879443 0.449460
vt 0.885603 0.652961
vt 0.882331 0.652689
vt 0.876170 0.449188
vt 0.846893 0.449661
vt 0.853010 0.653695
vt 0.849694 0.653493
vt 0.843578 0.449459
vt 0.853010 0.442231
vt 0.849739 0.442020
vt 0.885603 0.442046
vt 0.882331 0.441766
vt 0.829014 0.109249
vt 0.676933 0.109249
vt 0.442064 0.011580
vt 0.442064 0.321753
vt 0.343024 0.883431
vt 0.495087 0.883431
vt 0.108477 0.344914
vt 0.108477 0.655086
vt 0.891023 0.222775
vt 0.884863 0.215353
vt 0.888135 0.215081
vt 0.894296 0.222495
vt 0.011580 0.890751
vt 0.014791 0.883462
vt 0.163690 0.883462
vt 0.163644 0.890751
vt 0.890530 0.239061
vt 0.893803 0.238780
vt 0.011580 0.907174
vt 0.163644 0.907174
vt 0.014791 0.678247
vt 0.163690 0.678247
vt 0.642733 0.344914
vt 0.345324 0.344914
vt 0.011580 0.988420
vt 0.163644 0.988420
vt 0.888091 0.319628
vt 0.891364 0.319348
vt 0.891023 0.011853
vt 0.894296 0.011580
vt 0.858431 0.223255
vt 0.852270 0.215816
vt 0.855586 0.215614
vt 0.861702 0.223044
vt 0.820417 0.442582
vt 0.816314 0.449872
vt 0.668241 0.449872
vt 0.668337 0.442582
vt 0.857942 0.239583
vt 0.861213 0.239372
vt 0.820417 0.426159
vt 0.668337 0.426159
vt 0.816314 0.655086
vt 0.668241 0.655086
vt 0.011580 0.011580
vt 0.011580 0.321753
vt 0.820417 0.344914
vt 0.668337 0.344914
vt 0.855520 0.320361
vt 0.858791 0.320150
vt 0.858386 0.011782
vt 0.861702 0.011580
vn 1.0000 0.0000 0.0000
vn 0.0000 0.0000 1.0000
vn -1.0000 0.0000 0.0000
vn -0.0107 0.0000 -0.9999
vn 0.0000 -1.0000 0.0000
vn 0.0000 1.0000 0.0000
vn 0.0000 0.0000 -1.0000
vn -0.5999 0.0000 0.8001
vn 0.5977 0.0000 -0.8017
vn 0.6058 0.0000 -0.7956
vn -0.6154 0.0000 0.7882
vn -0.0874 0.9896 0.1142
vn 0.0856 0.9898 -0.1137
vn -0.0007 0.9902 -0.1396
vn -0.1541 0.9881 0.0000
vn 0.0000 0.9935 0.1135
vn 0.1221 0.9925 -0.0000
vn 0.0856 0.9898 0.1137
vn 0.0000 0.9935 -0.1135
vn 0.5977 0.0000 0.8017
vn 0.6058 0.0000 0.7956
vn -0.0874 0.9896 -0.1142
vn -0.0007 0.9902 0.1396
vn -0.5999 0.0000 -0.8001
vn -0.0107 0.0000 0.9999
vn -0.6154 0.0000 -0.7882
usemtl マテリアル
s off
f 25/1/1 2/2/1 4/3/1 26/4/1
f 40/5/2 31/6/2 8/7/2 27/8/2
f 27/9/3 8/10/3 6/11/3 28/12/3
f 50/13/4 42/14/4 2/15/4 25/16/4
f 34/17/5 7/18/5 5/19/5 32/20/5
f 44/21/6 4/22/6 2/23/6 42/24/6
f 45/25/7 43/26/7 9/27/7 1/28/7
f 7/29/3 11/30/3 12/31/3 5/32/3
f 34/33/2 33/34/2 11/35/2 7/36/2
f 1/37/1 9/38/1 10/39/1 3/40/1
f 41/41/8 46/42/8 18/43/8 13/44/8
f 32/45/9 36/46/9 17/47/9 15/48/9
f 31/49/6 14/50/6 16/51/6 35/52/6
f 41/53/5 13/54/5 15/55/5 45/56/5
f 39/57/10 35/58/10 16/59/10 29/60/10
f 49/61/11 44/62/11 14/63/11 30/64/11
f 46/42/8 47/65/8 24/66/8 18/43/8
f 36/46/9 37/67/9 23/68/9 17/47/9
f 43/26/7 48/69/7 19/70/7 9/27/7
f 11/30/3 21/71/3 22/72/3 12/31/3
f 33/34/2 38/73/2 21/74/2 11/35/2
f 9/38/1 19/75/1 20/76/1 10/39/1
f 47/65/12 49/61/12 30/64/12 24/66/12
f 37/67/13 39/57/13 29/60/13 23/68/13
f 48/69/14 50/13/14 25/16/14 19/70/14
f 21/71/15 27/9/15 28/12/15 22/72/15
f 38/73/16 40/5/16 27/8/16 21/74/16
f 19/75/17 25/1/17 26/4/17 20/76/17
f 24/77/18 30/78/18 40/79/18 38/80/18
f 22/81/19 28/82/19 39/83/19 37/84/19
f 18/85/20 24/77/20 38/80/20 33/86/20
f 12/87/7 22/81/7 37/84/7 36/88/7
f 28/82/7 6/89/7 35/90/7 39/83/7
f 8/91/6 31/49/6 35/52/6 6/92/6
f 5/93/7 12/87/7 36/88/7 32/94/7
f 13/95/20 18/85/20 33/86/20 34/96/20
f 13/54/5 34/17/5 32/20/5 15/55/5
f 30/78/21 14/97/21 31/98/21 40/79/21
f 23/99/22 29/100/22 50/101/22 48/102/22
f 20/103/23 26/104/23 49/105/23 47/106/23
f 17/107/24 23/99/24 48/102/24 43/108/24
f 10/109/2 20/103/2 47/106/2 46/110/2
f 26/104/25 4/111/25 44/112/25 49/105/25
f 3/113/5 41/53/5 45/56/5 1/114/5
f 3/115/2 10/109/2 46/110/2 41/116/2
f 15/117/24 17/107/24 43/108/24 45/118/24
f 14/50/6 44/21/6 42/24/6 16/51/6
f 29/100/26 16/119/26 42/120/26 50/101/26
